<svg xmlns="http://www.w3.org/2000/svg" xmlns:xlink="http://www.w3.org/1999/xlink" width="1390px" height="900px" viewBox="0 0 1390 900" preserveAspectRatio="xMidYMid meet" ><rect id="svgEditorBackground" x="0" y="0" width="1390" height="900" style="fill: none; stroke: none;"/><path d="M835,85l0,1l0,1l-1,1l0,1l0,1l0,1l0,1l-1,1l0,1l0,1l0,1l0,1l0,1l0,1l0,1l0,1l0,1l0,1l0,1l0,1l0,1l0,3l0,1l0,2l0,1l0,1l0,1l0,1l0,1l0,1l-1,1l-1,2l0,3l0,1l0,1l0,1l0,2l-1,1l0,2l0,1l0,2l0,3l0,5l0,4l0,2l0,1l0,3l0,2l0,2l0,2l0,1l0,2l0,1l1,2l0,1l1,5l0,1l1,4l0,1l0,3l1,4l1,5l0,2l0,4l1,2l0,2l1,3l0,2l0,1l0,2l0,2l0,2l2,4l1,4l0,3l1,4l0,4l0,4l0,3l0,3l0,4l0,1l0,2l0,2l0,3l0,3l0,4l0,2l0,3l0,3l0,3l0,4l0,2l0,6l0,7l0,5l0,2l0,2l0,5l0,3l0,2l0,5l0,3l0,4l0,4l0,5l0,1l0,8l-2,2l0,1l0,5l0,6l-1,2l0,4l-1,3l0,3l-1,5l0,1l0,5l-1,2l0,4l0,2l-1,3l0,3l0,1l0,5l-2,3l0,3l-1,1l0,4l0,3l0,2l0,1l0,2l-1,1l-1,5l0,2l-1,3l0,1l0,2l0,1l0,2l0,3l0,3l0,3l0,4l0,3l0,1l0,2l0,1l0,3l0,3l0,1l0,2l0,1l0,3l0,4l0,1l0,2l0,1l-1,4l0,3l0,3l0,1l-2,2l0,1l0,1l0,2l0,1l0,3l0,1l-1,2l0,1l0,2l0,1l0,3l0,1l0,2l0,3l0,4l0,5l0,2l0,3l0,1l0,4l0,2l0,1l0,2l0,1l0,2l0,1l0,3l0,2l0,1l0,4l0,6l0,3l0,2l-1,3l-1,4l0,3l-1,3l-1,1l0,2l-1,2l-1,2l0,1l-1,4l-3,3l-1,5l-3,4l-1,2l-2,2l-3,7l-1,1l-2,3l-1,1l-1,2l-3,4l-1,1l-2,2l-2,2l-1,2l-2,2l-3,3l-2,2l-1,1l-3,4l-3,3l-9,9l-2,2l-3,2l-2,2l-1,1l-2,1l-1,1l-2,3l-8,5l-2,1l-7,2l-3,2l-5,2l-6,3l-4,1l-9,5l-12,4l-10,5l-9,4l-3,0l-5,1l-3,2l-5,2l-5,1l-5,1l-1,1l0,1l-4,1l-1,0l-5,2l-3,0l-2,0l-3,0l-7,1l-6,1l-5,0l-3,1l-4,1l-4,1l-5,1l-5,0l-5,0l-5,0l-4,0l-9,0l-5,0l-10,0l-4,0l-5,0l-7,0l-5,0l-6,0l-3,0l-3,0l-2,0l-5,0l-3,0l-3,0l-5,0l-4,0l-3,0l-5,0l-4,0l-4,0l-3,0l-2,0l-3,0l-7,0l-7,0l-3,0l-3,0l-3,0l-2,0l-7,0l-5,0l-3,0l-2,0l-5,0l-3,0l-3,0l-5,0l-6,0l-6,0l-6,0l-6,0l-3,0l-2,0l-3,0l-3,-2l-2,0l-3,0l-4,-1l-4,-2l-4,0l-3,-1l-3,-2l-7,-1l-5,-2l-3,-1l-7,-1l-8,-3l-9,-5l-5,-2l-3,-1l-5,-2l-3,-1l-4,-3l-2,-1l-5,-1l-2,-1l-2,-1l-9,-5l-3,-1l-4,-4l-6,-4l-8,-6l-7,-6l-2,-2l-3,-3l-3,-4l-3,-2l-2,-2l-3,-4l-7,-8l-1,-2l-4,-5l-2,-4l-3,-4l-4,-5l-2,-5l-4,-9l-3,-6l-1,-3l-5,-10l-2,-8l-2,-5l0,-1l-3,-9l-2,-2l-2,-8l-2,-5l-1,-5l0,-5l-1,-5l0,-4l-1,-4l0,-4l-1,-9l-1,-5l-1,-6l-3,-10l0,-2l0,-3l-1,-5l0,-5l0,-2l-1,-3l0,-12l-2,-4l-1,-10l-2,-23l-3,-9l-1,-7l-1,-8l0,-2l-2,-7l0,-2l-1,-6l0,-4l-1,-4l0,-4l-1,-2l0,-3l0,-3l-1,-7l-1,-10l0,-3l0,-5l-1,-5l0,-7l0,-3l0,-4l0,-3l0,-5l0,-4l0,-4l0,-4l2,-5l1,-4l0,-4l1,-4l0,-4l1,-5l1,-7l3,-10l3,-8l3,-6l1,-2l1,-2l3,-5l0,-3l2,-2l1,-4l1,-2l1,-3l1,-3l2,-2l3,-7l5,-8l5,-8l1,-2l3,-5l4,-4l4,-4l1,-4l5,-5l1,-4l3,-2l2,-2l4,-4l4,-4l2,-1l4,-3l2,-2l5,-3l9,-7l2,-1l4,-3l9,-7l10,-6l11,-6l4,-2l5,-3l9,-4l5,-1l2,-2l9,-4l2,0l4,-2l4,-2l10,-3l9,-4l14,-4l10,-2l11,-4l7,-1l5,0l3,0l7,0l3,-2l5,0l2,-1l4,0l5,-1l5,0l11,-1l14,-2l17,0l18,-2l9,0l11,0l13,0l9,-1l5,0l7,0l4,0l5,0l7,0l3,0l8,5l3,0l5,1l4,0l2,0l2,0l9,2l8,1l9,2l7,3l2,0l2,1l5,1l2,1l5,1l8,2l1,1l5,1l3,0l2,2l5,2l2,1l7,3l5,2l3,2l3,1l1,1l2,2l3,2l1,1l1,3l3,3l0,1l3,4l2,2l2,2l2,3l3,6l3,6l4,5l1,2l1,4l2,1l0,2l1,2l1,2l1,2l1,1l0,4l3,3l1,4l3,5l2,4l0,1l1,3l2,4l1,5l1,4l2,4l0,1l0,3l0,1l0,2l2,5l0,1l0,3l0,2l1,4l0,2l0,5l1,4l0,2l2,8l0,6l1,10l0,3l0,4l0,4l0,1l0,4l0,6l0,2l0,3l0,4l0,4l0,3l0,4l0,4l0,6l0,3l0,1l0,2l0,1l0,3l0,1l0,4l0,2l0,1l0,3l0,9l0,5l0,2l0,2l0,6l0,6l0,2l0,3l0,3l0,3l0,2l0,1l0,2l0,4l0,2l0,6l0,4l0,4l0,1l0,4l1,6l0,2l0,1l0,2l0,2l0,2l0,2l0,3l0,3l0,2l0,2l0,6l0,2l0,2l0,1l0,3l0,4l0,8l0,8l0,5l0,3l0,2l0,5l0,2l0,5l0,1l0,5l0,3l0,3l0,4l0,5l0,3l0,6l0,4l0,1l0,2l0,1l0,2l0,4l0,1l0,3l-2,2l0,1l0,4l0,3l-2,4l-2,4l-1,3l0,2l-1,2l0,1l0,1l0,1l-1,1l0,2l-1,2l-1,1l0,1l-1,3l0,2l-2,3l-1,3l0,3l-1,1l-1,1l0,1l0,1l-1,2l-1,1l0,1l-1,2l-1,2l-1,1l-1,1l0,1l-2,2l-2,3l-1,1l-1,0l-1,1l0,1l-1,2l-1,0l-1,1l-1,1l-1,1l-1,0l-1,0l-1,1l-1,2l-2,1l-1,0l-2,1l-1,0l-2,1l-2,1l-2,1l-2,1l-2,0l-1,1l-1,0l-1,1l-3,2l-1,0l-1,0l-3,2l-3,1l-2,1l-1,0l-1,1l-1,0l-1,0l-2,1l-1,0l0,1l-2,0l-1,0l-3,1l-1,0l-1,1l-1,0l-1,0l-1,1l-1,1l-1,0l-1,0l-1,0l-1,1l-2,0l-1,1l-2,0l-2,1l-2,1l-3,2l-1,0l-1,1l-2,1l-1,1l-2,0l-2,2l-1,0l-1,1l-1,0l-1,0l-3,2l-3,1l-1,0l-1,0l-1,1l-1,1l-1,0l-1,0l-2,1l-2,1l-1,1l-1,0l-2,0l-1,0l-1,1l-3,1l-3,0l-1,0l-1,0l-1,0l-2,0l-1,0l-3,1l-2,1l-2,0l-2,0l-1,0l-3,1l-2,0l-4,1l-4,0l-2,0l-1,0l-2,0l-1,0l-2,1l-1,0l-2,0l-1,1l-3,0l-1,0l-2,0l-2,0l-1,0l-2,0l-5,0l-3,0l-2,0l-1,0l-2,0l-1,0l-2,1l-1,0l-2,0l-2,0l-3,0l-1,0l-1,0l-1,0l-1,0l-1,0l-1,0l-2,0l-1,0l-1,0l-2,0l-2,0l-1,0l-1,0l-1,0l-3,0l-3,0l-2,0l-1,0l-2,0l-1,0l-2,0l-3,0l-1,0l-2,0l-1,0l-2,0l-3,0l-3,0l-2,0l-5,0l-3,0l-1,0l-2,0l-2,0l-3,0l-2,0l-2,0l-4,0l-2,0l-1,0l-2,0l-3,0l-1,0l-2,0l-2,0l-2,0l-4,0l-2,0l-2,0l-2,0l-3,-1l-3,0l-3,-1l-2,0l-4,0l-3,-1l-3,-1l-4,0l-2,0l-3,-1l-2,-1l-1,0l-3,-1l-3,-2l-4,0l-3,-1l-2,-1l-1,-1l-4,-1l-2,0l-2,-2l-2,0l-1,-1l-1,0l-2,-2l-1,0l-1,0l-2,-1l-2,-2l-1,0l-1,0l-2,0l-1,0l-1,0l-1,-1l-2,-1l-1,0l-3,-1l-4,-1l-2,-2l-2,0l-2,-1l-2,0l-1,-1l-1,-1l-2,0l-2,-1l-1,-1l-2,-1l0,-1l-4,-2l-1,-1l-2,-2l-1,-1l-1,0l-3,-2l-1,-2l-1,-1l-2,-1l0,-1l-1,0l-2,-3l-1,0l-1,-1l-1,-1l-1,-1l-2,-2l-2,-1l-1,-2l-3,-2l-1,-1l-3,-3l-1,-1l-1,0l0,-2l-1,-1l0,-1l-1,-1l-3,-4l0,-1l-2,-2l-2,-2l-2,-4l-1,-2l-1,-1l-1,-3l-2,-4l0,-2l-1,-1l-3,-7l-1,-2l0,-1l-1,-1l-3,-5l0,-3l-1,-2l-1,-3l-2,-5l-1,-3l-1,-4l-2,-7l0,-2l0,-2l-2,-3l-1,-4l0,-1l0,-2l-1,-3l-2,-2l0,-2l-1,-3l0,-5l-1,-2l0,-1l0,-1l-1,-5l0,-4l-1,-3l0,-1l0,-2l0,-1l0,-3l0,-2l-1,-1l0,-2l-2,-4l0,-3l0,-2l-1,-4l-1,-8l0,-5l-2,-10l-1,-5l0,-3l0,-2l-1,-2l0,-4l0,-4l-1,-1l0,-4l-1,-5l0,-3l0,-2l0,-3l0,-5l-1,-2l0,-4l0,-2l0,-1l0,-2l0,-4l0,-2l0,-1l0,-3l0,-4l0,-4l0,-3l0,-2l0,-2l0,-2l-3,-7l0,-1l0,-3l0,-4l0,-3l0,-2l0,-2l0,-3l0,-3l0,-2l0,-2l0,-2l0,-9l0,-6l0,-8l0,-8l0,-6l0,-9l0,-7l0,-5l0,-1l0,-3l1,-10l0,-2l1,-2l0,-1l1,-2l1,-4l1,-2l2,-5l1,-4l2,-3l1,-2l1,-3l0,-1l2,-3l1,-2l1,-1l1,-2l5,-6l3,-4l1,-1l4,-4l4,-2l1,-1l5,-3l4,-3l4,-2l3,-2l2,-1l5,-3l4,-2l3,-1l5,-3l3,0l5,-3l2,-1l6,-2l5,-3l7,-1l8,-2l11,-5l5,-1l6,-1l9,-3l5,-1l9,0l4,-1l9,-4l4,0l4,-1l2,0l3,0l2,0l3,0l4,-1l1,0l2,-1l1,0l1,0l2,0l2,0l2,0l3,-1l4,-1l3,0l10,-1l6,0l5,-2l10,-1l11,-1l10,-2l8,-1l5,0l5,0l5,0l9,0l7,0l5,0l9,0l6,0l8,0l4,0l4,1l5,1l2,1l7,1l6,2l5,1l7,2l6,3l5,1l10,3l6,4l5,4l6,3l4,4l5,4l1,1l4,4l3,4l1,1l2,3l1,3l1,1l1,3l0,4l3,5l4,8l2,7l2,8l2,8l0,8l1,6l0,4l0,4l0,5l0,7l0,5l0,5l0,8l0,6l0,5l0,10l0,9l0,10l0,6l0,4l0,2l0,3l0,6l0,2l0,2l0,2l0,2l0,7l0,5l0,2l0,3l0,3l0,6l0,8l0,5l0,3l0,5l0,5l0,5l-1,3l0,3l-1,5l-1,4l-1,8l0,4l-1,8l-2,8l0,4l-1,5l0,3l-1,3l0,2l0,2l0,1l-1,2l0,4l0,1l-1,5l0,1l0,4l-1,2l-1,4l-1,3l-1,2l0,1l-1,2l0,1l-1,3l-2,5l-1,1l0,1l-1,2l-1,2l-1,3l-2,3l-1,2l-2,4l-3,4l-3,4l-1,1l-1,1l-1,1l0,1l-1,2l-1,0l0,1l-1,1l-1,2l-2,2l-1,2l-4,4l-3,4l-1,1l-1,1l-1,0l-1,1l0,1l-1,1l-1,1l-4,2l0,1l-2,1l-1,0l-2,2l-3,0l-4,2l-4,2l-6,3l-2,1l-3,2l-1,0l-2,0l-2,1l-1,0l-2,1l-5,2l-4,0l-1,1l-1,0l-3,0l-3,2l-6,0l-3,0l-2,0l-2,1l-3,0l-1,0l-2,0l-1,0l-2,1l-1,0l-2,0l-1,0l-2,0l-1,0l-2,0l-2,0l-3,0l-1,0l-2,0l-1,0l-3,0l-2,0l-2,0l-2,0l-7,0l-5,0l-2,0l-3,0l-5,-2l-1,0l-4,0l-3,-1l-3,-2l-2,0l-4,-1l-3,-1l-5,-1l-7,-2l-5,-2l-3,-1l-2,-1l-2,-1l-1,0l-1,-1l-3,-1l-2,-1l-1,-1l-1,-1l-1,-1l-1,-1l-3,-3l-2,-1l-2,-3l-1,-1l-2,-2l-2,-3l-4,-5l-2,-3l-2,-2l-2,-1l-3,-3l-1,0l-2,-1l-2,-2l-5,-4l-3,-3l-1,-1l-2,-2l-3,-4l-1,-1l-2,-1l-4,-4l-5,-2l-2,-2l-1,-1l-3,-2l-3,-3l-3,-3l-2,-2l-4,-3l-2,-2l-4,-4l-4,-5l0,-1l-2,-2l-1,-2l-3,-9l-2,-1l-1,-1l-2,-5l-2,-5l-1,0l-1,-4l0,-2l-1,-1l-2,-3l-1,-3l-1,-2l-1,-1l-1,-5l-2,-3l0,-1l-1,-4l-1,-7l-1,-3l0,-1l-1,-2l0,-1l0,-3l-1,-4l0,-3l0,-1l0,-2l-1,-2l0,-1l0,-2l0,-4l0,-4l0,-10l0,-4l0,-2l0,-1l0,-5l0,-2l0,-3l0,-1l0,-2l0,-1l1,-4l1,-2l0,-4l1,-6l1,-5l1,-5l0,-3l1,-2l0,-3l0,-7l0,-2l3,-5l0,-3l2,-8l1,-2l2,-8l2,-5l1,-3l2,-8l2,-5l1,-3l1,-4l2,-3l1,-1l1,-2l2,-2l1,-2l0,-1l6,-11l1,-1l3,-2l4,-6l4,-6l4,-3l3,-4l3,-2l2,-2l3,-3l4,-1l3,-4l4,-1l5,-3l4,-1l22,-9l16,-4l23,-4l13,-2l15,0l5,-2l3,0l5,-1l2,0l5,0l3,0l4,0l1,0l4,0l8,0l5,0l4,0l5,0l7,2l3,1l2,2l1,0l1,0l2,1l2,1l2,1l3,2l3,2l2,1l5,3l4,2l1,2l1,0l1,1l4,4l4,5l2,3l4,4l2,5l1,1l2,3l2,4l1,2l6,9l0,2l2,4l2,7l1,8l1,4l1,5l1,5l0,4l0,3l0,2l0,5l0,3l0,5l0,2l0,7l0,3l0,3l0,5l0,7l-2,8l-1,5l0,2l-1,1l-2,5l-1,2l0,2l-4,10l-2,7l-3,3l-1,2l0,2l-2,4l-2,5l-4,8l-3,6l-2,4l-1,2l-1,2l-1,1l-2,5l-1,1l-1,2l-1,3l-1,1l0,2l-3,3l0,1l0,1l-1,2l-3,4l-2,4l-3,3l0,1l-1,1l-1,2l-1,1l-4,3l-2,1l-3,2l-2,1l-1,1l-2,1l-2,1l-2,1l-8,4l-4,2l-7,1l-6,1l-3,0l-3,2l-1,0l-3,0l-1,0l-3,0l-4,0l-6,0l-7,0l-3,0l-2,0l-7,0l-5,0l-6,0l-5,0l-4,0l-4,0l-5,0l-8,-1l-1,0l-2,0l-2,-1l-2,-1l-1,-1l-2,0l-2,-2l-1,-1l-3,-2l-1,-1l-2,-1l-1,-1l-1,-1l-1,-1l0,-1l-2,-3l-1,-1l-1,-1l-3,-4l-3,-4l-1,-3l0,-1l-2,-6l-1,-5l-2,-5l-1,-3l-1,-2l0,-4l0,-2l-2,-4l-1,-4l0,-7l-1,-5l0,-7l-1,-4l0,-5l0,-4l0,-2l0,-2l0,-2l0,-2l0,-3l0,-1l0,-3l0,-2l1,-1l0,-2l1,-2l0,-1l1,-2l1,-3l2,-4l0,-1l1,0l2,-5l0,-1l4,-6l1,-1l0,-1l6,-8l1,-1l2,-3l5,-7l4,-4l5,-3l3,-2l1,0l1,-1l1,-1l2,-1l2,0l2,0l3,-1l6,0l6,0l4,0l3,0l6,0l1,0l2,0l1,0l2,0l2,0l2,0l1,1l2,1l2,1l1,0l2,1l2,2l2,1l2,1l1,1l0,1l1,0l1,1l1,1l1,0l0,1l2,1l0,1l1,2l0,1l2,3l1,1l1,2l1,0l0,1l1,1l0,1l1,2l1,2l0,1l1,2l0,1l1,2l0,3l0,2l0,1l1,2l0,1l0,2l0,1l2,5l0,2l0,1l0,1l1,2l0,2l0,3l0,3l0,2l0,1" stroke="black" id="e1_freepath" style="fill: none; stroke-width: 1px;"/></svg>