<?xml version="1.0" encoding="UTF-8"?>
<!-- Created with EazyDraw for Mac ( http://www.eazydraw.com/ ) -->

<svg
    version="1.1"
    xmlns:dc="http://purl.org/dc/elements/1.1/"
    xmlns:cc="http://creativecommons.org/ns#"
    xmlns:rdf="http://www.w3.org/1999/02/22-rdf-syntax-ns#"
    xmlns:svg="http://www.w3.org/2000/svg"
    xmlns:xlink="http://www.w3.org/1999/xlink"
    xmlns="http://www.w3.org/2000/svg"
    width="534.39427065"
    height="696.103999721"
    viewBox="0, 0, 534.39427065, 696.103999721"
    preserveAspectRatio="none"
    id="svg2">
   <defs
       id="defs_AE862B2E"/>
   <metadata
       id="metadata7">
      <rdf:RDF>
         <cc:Work
             rdf:about="">
            <dc:format>image/svg+xml</dc:format>
            <dc:type rdf:resource="http://purl.org/dc/dcmitype/StillImage"/>
            <dc:title></dc:title>
         </cc:Work>
      </rdf:RDF>
   </metadata>
   <g
       id="layer_Paper"
       style="fill:#000000;fill-opacity:1;stroke:#000000;stroke-opacity:1;fill-rule:nonzero;stroke-linecap:square;stroke-linejoin:miter;stroke-width:1;stroke-miterlimit:10">
      <polyline
          style="fill:none"
          id="17AA0E1E"
          points="77.3965250979,0.513418966061 71.7134393915,209.310540799 85.8613688479,238.868887716 96.9149758271,280.114632615 91.7237357954,315.428562356 77.0723063479,336.478262716 59.4238688479,349.290762716 27.8620318357,365.986800356 1.324146494884,376.346032148 23.9512125979,388.185293966 46.6621500979,400.646231466 74.0854340371,427.023826655 93.2318581615,455.77197006 103.416056348,488.900137716 102.126993848,522.474356466 91.5605875979,551.111075216 78.5551881563,571.690880498 106.318400098,561.736075216 135.512975319,555.667394062 180.635399726,555.164297747 224.413009168,572.142393099 246.400431348,591.017325216 260.087931348,617.353262716 274.9011035,651.39333248 294.76078291,609.614004904 320.966472725,576.060064197 349.154633003,554.351770825 373.841837598,544.489981466 402.709025098,540.341543966 436.279337598,548.040762716 467.728139417,561.323356973 456.396525098,527.825918966 447.099650098,495.919668966 444.466837598,468.466543966 447.971480139,441.43479511 460.919962598,411.462637716 477.111368848,391.439200216 503.986368848,371.759512716 532.868694914,358.364088117 499.861368848,348.947012716 476.580118848,337.013418966 456.963075094,326.958038317 442.692985897,308.504993344 435.322306348,277.224356466 441.209025098,242.931387716 449.482462598,223.489981466 458.416165195,204.500496773 429.654337598,212.923575216 397.837931348,220.935293966 368.994181348,222.974356466 337.478712964,215.886440948 308.767618848,200.982168966 291.185587598,185.220450216 280.162150098,166.583731466 275.440942479,158.601845729 262.489490448,123.772946045 246.955118848,159.790762716 241.357462598,183.599356466 246.396525098,206.458731466 263.712146698,233.862789795 256.791056348,263.470450216 246.467050414,288.395954691 226.19553992,306.408016878 205.630900098,306.427481466 188.673868848,300.489981466 173.009904161,295.005248381 153.118418327,283.435421843 160.943400098,297.083731466 172.630900098,311.044668966 176.177775098,318.884512716 180.831603733,329.435915552 181.260679412,347.544972779 173.236252182,360.104940751 161.244181348,367.689200216 150.423868848,373.200918966 133.177775098,378.415762716 121.024050824,382.31474478 140.744181348,390.208731466 158.556681348,396.525137716 171.611368848,408.728262716 184.340477489,424.929966822 185.181681348,445.470450216 176.429728223,466.135489279 165.264586174,488.955320294 157.255151566,496.584631309 184.036167088,479.706600448 208.046753858,470.973992943 222.843476995,468.8063661 239.757491233,472.347065382 256.201212598,491.489981466 263.896525098,509.368887716 273.103087575,541.311382443 278.166191657,517.060455545 286.716837598,489.462637716 302.314493848,473.224356466 320.086741821,463.603960316 344.447031189,467.055943233 360.716837598,475.161856466 385.753018785,487.829492041 370.485460368,465.177828827 362.298868848,448.263418966 354.439493848,424.216543966 362.329006497,398.449937935 383.244181348,385.329825216 415.342964808,370.348183407 423.348250677,369.613127159 395.086717054,368.37370707 369.123087598,361.107168966 355.240255739,348.631282729 352.009806348,334.079825216 355.412150098,317.993887716 360.162150098,304.579825216 371.275540195,286.781746773 339.16703291,302.107168966 317.666856603,306.41162508 286.884806348,316.200918966 268.990275098,330.419668966 258.935587598,357.415762716 260.509806348,383.493887716 259.748087598,695.396231466 447.334025098,694.595450216"/>
   </g>
</svg>
