<?xml version="1.0" encoding="UTF-8"?>
<!-- Created with EazyDraw for Mac ( http://www.eazydraw.com/ ) -->

<svg
    version="1.1"
    xmlns:dc="http://purl.org/dc/elements/1.1/"
    xmlns:cc="http://creativecommons.org/ns#"
    xmlns:rdf="http://www.w3.org/1999/02/22-rdf-syntax-ns#"
    xmlns:svg="http://www.w3.org/2000/svg"
    xmlns:xlink="http://www.w3.org/1999/xlink"
    xmlns="http://www.w3.org/2000/svg"
    width="568.29637775"
    height="741.652002355"
    viewBox="0, 0, 568.29637775, 741.652002355"
    preserveAspectRatio="none"
    id="svg2">
   <defs
       id="defs_D4F8620E"/>
   <metadata
       id="metadata7">
      <rdf:RDF>
         <cc:Work
             rdf:about="">
            <dc:format>image/svg+xml</dc:format>
            <dc:type rdf:resource="http://purl.org/dc/dcmitype/StillImage"/>
            <dc:title></dc:title>
         </cc:Work>
      </rdf:RDF>
   </metadata>
   <g
       id="layer_Paper"
       style="fill:#000000;fill-opacity:1;stroke:#000000;stroke-opacity:1;fill-rule:nonzero;stroke-linecap:square;stroke-linejoin:miter;stroke-width:6.013596534729;stroke-miterlimit:10">
      <polyline
          style="fill:none"
          id="D45CDBFD"
          points="114.982135354,656.549287423 114.361498992,565.97457587 364.483458395,564.582054218 363.607908477,663.424625424 336.516710499,663.343562112 335.482868841,720.671345043 545.73441829,720.1446295 546.19746,662.565997169 460.025889939,663.698185675 460.268756512,515.824692177 372.177904247,516.375459298 375.475718022,271.064136859 317.417947386,271.123045919 317.361330633,210.022732948 389.135553743,210.477853784 388.67887247,112.807190295 125.805454808,111.748731539 126.654010354,4.420381173013 4.341510353731,4.256318673013 4.275104103731,120.689912423 123.618854104,121.896943673 122.224322854,503.326631173 14.0290103537,504.365693673 15.7165103537,579.021943673 64.2360416037,578.635224923 63.6344791037,662.869599923 8.779010353731,663.150849923 8.568072853731,737.396943673 563.368854104,735.115693673 564.071979104,642.420381173 516.974322854,643.432099923 518.271197854,573.650849923 559.548541604,573.381318673 559.540729104,498.068818673 316.724322854,499.467256173 316.779010354,585.592256173 246.439166604,585.389131173 248.071979104,497.580537423 183.946979104,498.713349923 184.380572854,271.043428048 255.489947854,270.937959298 255.267291604,194.127412423 184.755572854,194.330537423 183.749713479,101.143037423 253.279010354,101.486787423 254.048541604,18.353974923 17.7555728537,19.459443673 16.3141666037,199.396943673 137.122760354,199.623506173 137.228229104,585.650849923 192.654010354,585.150849923 191.556354104,648.811006173 257.091510354,649.311006173 256.150104104,721.682099923 325.329791604,721.189912423 325.915729104,645.820771798 385.921588479,647.051240548 386.388385354,571.666474923 445.630572854,570.803193673 447.150104104,16.553193673 555.782916604,16.853974923 556.267291604,202.123506173 426.435260354,201.428193673 428.802447854,18.916474923 314.845416604,19.295381173 315.923541604,137.150849923 371.208697854,136.936006173 370.970416604,182.314912423 295.599322854,182.225068673 294.486041604,271.561006173"/>
   </g>
</svg>
