<?xml version="1.0" encoding="UTF-8"?>
<!-- Created with EazyDraw for Mac ( http://www.eazydraw.com/ ) -->

<svg
    version="1.1"
    xmlns:dc="http://purl.org/dc/elements/1.1/"
    xmlns:cc="http://creativecommons.org/ns#"
    xmlns:rdf="http://www.w3.org/1999/02/22-rdf-syntax-ns#"
    xmlns:svg="http://www.w3.org/2000/svg"
    xmlns:xlink="http://www.w3.org/1999/xlink"
    xmlns="http://www.w3.org/2000/svg"
    width="377.400824218"
    height="700.703760721"
    viewBox="0, 0, 377.400824218, 700.703760721"
    preserveAspectRatio="none"
    id="svg2">
   <defs
       id="defs_0C77E8CC"/>
   <metadata
       id="metadata7">
      <rdf:RDF>
         <cc:Work
             rdf:about="">
            <dc:format>image/svg+xml</dc:format>
            <dc:type rdf:resource="http://purl.org/dc/dcmitype/StillImage"/>
            <dc:title></dc:title>
         </cc:Work>
      </rdf:RDF>
   </metadata>
   <g
       id="layer_Paper"
       style="fill:#000000;fill-opacity:1;stroke:#000000;stroke-opacity:1;fill-rule:nonzero;stroke-linecap:square;stroke-linejoin:miter;stroke-width:1;stroke-miterlimit:10">
      <polyline
          style="fill:none"
          id="3DE4CFBC"
          points="2.19582119225,0.500651044881 2.545547940469,268.914262455 6.17824306725,277.588216149 14.3844827949,282.423608486 162.448099838,283.165690107 162.366394109,132.64355469 2.310730046733,132.579101565 3.474406645763,408.320583111 9.056498275389,417.4827474 18.7106183661,422.426886356 162.813659735,423.436848961 162.366394109,132.64355469 2.310730046733,132.579101565 4.002194726986,553.175691536 9.238464421756,559.627278649 17.1350242718,564.332232777 163.37453213,565.309895837 162.366394109,132.64355469 2.310730046733,132.579101565 4.477244297576,697.862412098 163.42531338,699.401692711 163.583842025,568.702473961 161.983581609,81.7597656279 177.836003484,82.2067578154 178.638816883,268.940401098 186.591183311,277.400692053 196.524270478,283.733185803 334.865922894,284.845353511 334.375688519,133.704728511 178.054605442,133.053368006 178.343744726,407.590157923 184.200883832,418.465145179 194.334438238,423.673397849 335.245154665,424.834285803 334.375688519,133.704728511 178.054605442,133.053368006 177.946028208,552.12154771 184.876014041,560.935848303 192.390006225,565.806093878 335.627316124,566.442684241 334.375688519,133.704728511 178.054605442,133.053368006 177.350755085,698.750314173 345.348019249,699.788387366 374.946001019,632.793270178 375.494178103,546.221655594"/>
   </g>
</svg>
