<?xml version="1.0" encoding="UTF-8"?>
<!-- Created with EazyDraw for Mac ( http://www.eazydraw.com/ ) -->

<svg
    version="1.1"
    xmlns:dc="http://purl.org/dc/elements/1.1/"
    xmlns:cc="http://creativecommons.org/ns#"
    xmlns:rdf="http://www.w3.org/1999/02/22-rdf-syntax-ns#"
    xmlns:svg="http://www.w3.org/2000/svg"
    xmlns:xlink="http://www.w3.org/1999/xlink"
    xmlns="http://www.w3.org/2000/svg"
    width="460.937655613"
    height="738.615914445"
    viewBox="0, 0, 460.937655613, 738.615914445"
    preserveAspectRatio="none"
    id="svg2">
   <defs
       id="defs_BDC9421E"/>
   <metadata
       id="metadata7">
      <rdf:RDF>
         <cc:Work
             rdf:about="">
            <dc:format>image/svg+xml</dc:format>
            <dc:type rdf:resource="http://purl.org/dc/dcmitype/StillImage"/>
            <dc:title></dc:title>
         </cc:Work>
      </rdf:RDF>
   </metadata>
   <g
       id="layer_Paper"
       style="fill:#000000;fill-opacity:1;stroke:#000000;stroke-opacity:1;fill-rule:nonzero;stroke-linecap:square;stroke-linejoin:miter;stroke-width:6.013596534729;stroke-miterlimit:10">
      <polyline
          style="fill:none"
          id="2A3ADA0E"
          points="7.080935626774,735.545779377 250.670779377,730.358279377 432.885623127,722.186404377 434.979373127,599.287966877 75.2723418768,602.561404377 76.8348418768,551.143435627 232.237185627,542.155154377 231.448123127,625.518435627 33.8426543768,627.116091877 35.9754668768,524.674685627 433.545779377,502.889529377 432.748904377,432.897341877 272.346560627,437.334841877 276.530154377,536.577029377 456.522341877,527.077029377 453.580935627,407.823123127 30.0418731268,404.682498127 28.4520293768,343.717654377 183.584841877,342.471560627 180.327029377,431.112185627 11.8817168768,428.940310627 10.9910918768,320.182498127 443.776248127,323.944216877 434.080935627,220.139529377 303.053591877,220.174685627 185.452029377,222.030154377 194.108279377,165.897341877 298.659060627,167.491091877 303.424685627,249.409060627 4.299685626774,249.471560627 3.022341876774,3.022341876774"/>
   </g>
</svg>
