<?xml version="1.0" encoding="UTF-8"?>
<!-- Created with EazyDraw for Mac ( http://www.eazydraw.com/ ) -->

<svg
    version="1.1"
    xmlns:dc="http://purl.org/dc/elements/1.1/"
    xmlns:cc="http://creativecommons.org/ns#"
    xmlns:rdf="http://www.w3.org/1999/02/22-rdf-syntax-ns#"
    xmlns:svg="http://www.w3.org/2000/svg"
    xmlns:xlink="http://www.w3.org/1999/xlink"
    xmlns="http://www.w3.org/2000/svg"
    width="531.837754851"
    height="710.237430961"
    viewBox="0, 0, 531.837754851, 710.237430961"
    preserveAspectRatio="none"
    id="svg2">
   <defs
       id="defs_641D218D"/>
   <metadata
       id="metadata7">
      <rdf:RDF>
         <cc:Work
             rdf:about="">
            <dc:format>image/svg+xml</dc:format>
            <dc:type rdf:resource="http://purl.org/dc/dcmitype/StillImage"/>
            <dc:title></dc:title>
         </cc:Work>
      </rdf:RDF>
   </metadata>
   <g
       id="layer_Paper"
       style="fill:#000000;fill-opacity:1;stroke:#000000;stroke-opacity:1;fill-rule:nonzero;stroke-linecap:square;stroke-linejoin:miter;stroke-width:1;stroke-miterlimit:10">
      <polyline
          style="fill:none"
          id="B0999E7D"
          points="279.395247188,257.851992999 279.243212017,269.982082694 292.916167904,276.967791036 305.468930731,275.972726684 312.60238594,266.947102191 316.406965938,246.656680499 300.652111913,226.199491316 288.566399086,219.9558375 269.561262813,216.748477374 253.065307031,222.315004986 238.811275235,231.731802428 225.12941361,250.583520161 219.466273066,275.025234561 224.045212552,300.193541176 231.069075313,313.037539874 242.252669063,327.039492999 261.673217201,341.011270484 276.883938935,346.275846091 295.949934688,348.975039874 317.301497188,345.809024249 347.388344564,331.832932718 368.635382253,310.786745008 380.813615719,287.587756455 383.932275642,276.440420239 386.846991525,253.571371652 385.558191603,238.483563838 378.825684089,215.078168945 368.924544063,197.350039874 347.490450978,172.130707473 317.110496295,153.934390236 281.092123791,145.756700236 247.218000631,148.697844278 211.539046934,163.2338134 184.665450311,184.247440402 167.956659139,205.138171067 158.938813916,221.930747653 150.742201759,248.11923516 147.304450957,273.42076755 148.642974919,295.412762378 157.390024282,327.488001585 169.876934895,351.829630755 179.737044063,365.935977374 197.366375783,384.166208621 215.752669063,397.494571124 250.01347209,413.857873457 265.217052795,417.577337094 292.275614071,421.225697991 317.594465938,419.516055499 339.980380723,414.777978425 366.972856122,403.967152135 393.833023999,387.085743886 413.960464674,368.961745485 424.552913571,356.623786825 436.360090938,341.193789874 446.677118064,318.17008058 453.102278438,298.301211749 455.419848528,287.528857344 459.070462844,261.869408216 457.880127938,232.389713588 451.850325313,205.090274249 440.158919063,177.906680499 421.715192976,146.204184198 399.280012813,120.191836749 367.581312143,98.0708776744 326.7757413,80.8216891361 282.166042016,73.236369231 236.477152483,76.8414647504 199.160759568,88.6533940551 169.389645043,104.410435165 137.078878147,129.770520285 111.988997188,157.559024249 90.1056028893,198.453803356 78.4792593865,240.820280991 74.7146382369,276.977331326 80.6540108392,325.259480908 89.3553654753,352.347507681 105.889436191,385.698866549 130.259777647,418.942082953 141.056699728,430.374228976 165.595992849,451.35756695 181.729231563,462.574649249 207.926900264,475.662996142 247.770585998,488.135952855 281.347929789,492.527646841 342.155367324,489.129886431 381.159749587,477.041396988 420.621570872,456.47097772 437.289825674,444.766222272 452.908388131,431.775297862 477.627669063,406.457461749 493.055362551,385.094992329 507.14951562,360.567818564 518.450444505,333.474539976 526.073954562,305.154368616 530.607174802,274.576431246 531.337754851,236.742921836 526.988997188,207.226992999 517.898048568,173.252774601 504.042857215,141.53213844 483.928722412,108.835187 466.090513992,86.6164770353 439.422590938,61.334414874 411.505428502,40.1066683572 377.349948172,21.8661265736 341.469605753,9.436265458485 302.236593686,2.740269919063 269.066731287,0.5 219.640682439,6.00334285269 185.894601463,15.7673633694 146.18541198,33.9492990349 112.964426357,55.6353371595 82.4905043791,82.24668162 64.0418106379,102.670542819 48.3531582786,123.760049016 32.4675128133,148.310977374 16.5768878133,187.287539874 7.42955266904,223.557924727 3.778059688288,254.998477374 0.797590938288,405.277774249 0.5,432.789735431 2.029892768213,469.63962654 8.584700313288,504.051211749 19.3542080553,537.108864873 37.4387730987,573.613197653 59.353215943,605.466800424 80.5392937141,629.325433688 111.022200313,655.111758624 143.154215242,677.051915286 173.574050735,691.682895898 215.307123464,704.538550946 262.564344893,709.737430961 299.908919063,708.449649249 349.194314127,697.958696755 394.045373255,678.480174634 434.65353316,650.606361637 466.005346266,619.780153832 492.962346636,582.456918275 508.643294063,553.807071124 522.424544063,514.566836749 526.751096271,477.772070016 526.572984193,445.436389146 519.318305643,394.969455068 507.14951562,360.567818564 488.350325313,326.756289874 471.369856563,304.283633624 455.419848528,287.528857344 429.834784165,264.701646347 403.841409132,247.781204009 385.558191603,238.483563838 353.498762813,227.289492999 308.594465938,218.365664874 276.998244858,219.740375572 253.065307031,222.315004986 214.3259644,232.829012789 177.466762325,251.043049107 157.057356563,265.086367999 147.304450957,273.42076755 127.035872188,292.398867999 111.795637813,311.478946124 100.274153438,331.129336749 89.3553654753,352.347507681 78.6596188547,382.882538441 72.3882059345,423.139779545 73.8600909383,462.738711749 81.4451186315,496.30759834 94.2424756099,527.613432339 114.153618172,558.830589564 134.767908872,581.719883122 158.238632933,601.157877578 183.663800405,616.658063337 205.998762813,625.453555499 239.42114961,635.381034623 263.907912626,637.726679562 289.664677294,636.30390142 325.811236616,629.46092233 350.074223258,620.059006058 377.479220163,603.921210204 397.023988262,587.891478388 418.534328507,563.981989209 438.055403438,534.062930499 450.60774889,497.262002413 455.144392584,455.862784912 452.908388131,431.775297862 441.027357707,389.62432699 428.564727062,366.617675741 411.938215938,345.928164874 390.053450313,325.807071124 368.635382253,310.786745008 332.060324018,295.876133842 297.127669063,289.807071124 249.320928579,297.321727021 226.643245468,306.165772196 193.237817421,328.873682215 171.086641799,353.709043577 152.251965001,389.549532094 145.567122188,415.795352374 144.372171687,433.884762745 145.865029249,452.118202791 153.723938718,484.114546245 167.837193743,510.317110042 178.642386413,523.761285978 199.138366726,541.938920578 222.502669063,554.908633624 239.226069479,561.374163023 265.60083633,565.536533966 286.112871435,564.182946844 306.381575313,559.760196124 319.553436852,554.659192169 335.795637813,544.266055499 349.840559688,533.365664874 361.739109875,519.886605514 374.479201778,497.982800411 379.768294063,482.182071124 381.159749587,477.041396988 383.744856563,456.994571124 379.415650263,431.43114843 375.376849036,419.547201898 366.972856122,403.967152135 345.208809919,381.040539894 327.238997188,370.455508624 306.475325313,362.830508624 280.263385933,364.185597677 257.481184688,369.443789874 244.729231563,378.244571124 236.135481563,387.160586749 224.574053032,403.22216303 214.961653438,431.107852374 219.99733807,456.137095623 226.555403438,466.869571124 235.930403438,478.129336749 247.770585998,488.135952855 265.504291729,493.687440873 281.347929789,492.527646841 297.795637813,484.105899249 308.644371389,471.036654818 312.293684688,459.088321124 309.384632582,445.168375607 300.719465938,433.326602374 289.354231563,432.014102374 282.011461933,435.917687294 281.735090938,446.264102374 280.256575313,463.226992999"/>
   </g>
</svg>
