<svg xmlns="http://www.w3.org/2000/svg" xmlns:xlink="http://www.w3.org/1999/xlink" width="1390px" height="900px" viewBox="0 0 1390 900" preserveAspectRatio="xMidYMid meet" ><rect id="svgEditorBackground" x="0" y="0" width="1390" height="900" style="fill: none; stroke: none;"/><path d="M532,28l0,1l0,1l-1,0l0,1l0,1l0,2l0,1l0,1l0,1l-1,2l0,1l0,2l0,1l0,3l0,1l0,2l0,1l0,2l0,4l0,3l0,4l0,3l0,2l0,3l0,1l0,4l0,1l0,2l0,1l0,3l-2,2l0,2l-1,2l0,3l0,3l0,3l-1,2l0,2l0,1l0,1l0,1l0,2l0,1l0,2l0,1l0,2l0,2l0,1l0,2l0,2l0,2l0,1l0,2l0,5l0,2l0,3l0,1l0,1l0,2l0,2l0,1l0,2l0,2l0,1l0,1l0,3l0,3l0,3l0,3l0,3l0,1l0,2l0,1l0,2l0,1l-1,2l0,1l0,2l0,1l0,1l-1,2l0,2l0,2l0,2l0,3l0,2l-1,2l0,1l0,1l0,2l0,1l-1,1l0,1l0,2l0,1l0,1l-1,2l0,1l0,2l0,1l0,1l0,1l0,1l0,1l-1,1l0,1l0,1l0,2l-1,1l0,1l0,1l0,1l0,1l0,1l-1,1l0,2l-1,1l0,1l0,1l-1,2l0,1l-1,1l0,1l0,1l-1,1l0,1l0,1l0,2l-1,1l-1,0l0,1l0,1l0,1l-1,0l-1,1l0,1l-1,1l0,1l-1,2l-1,1l-1,1l-1,0l-1,0l-1,1l-1,0l-1,0l-1,0l-1,0l-2,0l-1,0l-2,-1l0,-1l-1,0l-1,0l-1,-2l-1,-1l-1,-1l0,-1l0,-1l0,-2l0,-1l0,-1l-1,-1l0,-1l0,-1l0,-1l0,-1l0,-1l0,-1l0,-1l0,-1l0,-1l1,0l0,-1l1,0l1,0l1,0l1,0l1,0l1,0l2,0l2,0l1,0l1,0l1,0l1,0l1,0l2,0l1,0l1,0l1,0l2,0l1,0l1,1l1,1l1,0l1,0l1,0l1,0l1,1l1,0l1,0l1,0l3,1l1,0l2,0l1,0l2,0l1,0l1,0l1,0l1,0l1,0l2,0l3,0l1,0l2,0l1,1l1,0l1,0l1,0l1,0l2,0l1,0l1,0l1,0l3,0l1,0l2,0l4,0l3,0l1,0l2,0l1,0l2,0l3,0l4,0l1,0l3,0l1,0l2,0l4,0l2,0l1,0l4,0l3,0l6,0l1,0l3,0l3,0l1,0l4,0l1,0l2,0l1,0l3,0l2,0l1,0l3,0l1,0l6,0l3,0l3,0l4,0l1,0l2,-1l3,0l1,0l2,-1l1,0l3,0l1,-1l2,0l3,0l1,0l2,0l7,0l5,-1l4,-1l1,0l2,0l1,-1l2,0l4,0l1,0l2,0l1,0l1,-1l1,0l1,0l2,0l1,0l5,-1l3,-1l4,0l1,0l2,0l3,0l2,0l3,0l3,0l1,0l2,0l1,0l1,0l1,0l1,0l1,0l1,0l1,0l1,0l2,1l2,0l4,0l2,0l2,0l1,1l3,1l1,0l3,1l1,1l1,0l1,0l2,1l1,0l1.3125,0.4375l1.0625,1.1875l0.625,1.375l0,2l1,1l0,1l0,1l0,1l0,1l0,1l-1,1l-0.75,0.875l-1.25,0.125l-1,1l-1.875,0.5625l-3.8125,-2l-3.125,-1.4375l-4.875,-2.125l-1.125,-3.3125l-1.5625,-2.75l-1.625,-3.0625l-0.625,-2.75l-0.875,-3.4375l0.5,-2.6875l0,-1l-1,-1l0,-1l-1,-2l-1,-1l-1,-1l-1,-2l-1,0l0,-1l-1,-1l-1,-1l-1,-2l-2,-3l-3,-3l-3,-7l-1,-1l-3,-4l-2,-2l-1,-3l-2,-2l-1,-1l0,-2l-1,-3l-1,-1l-1,-1l0,-2l-2,-2l0,-3l-1,-2l-1,-3l-1,-3l-1,-3l0,-3l0,-1l-2,-4l0,-1l0,-3l0,-1l-1,-1l0,-4l-1,-2l0,-2l-2,-3l0,-1l0,-1l0,-3l0,-5l-1,-3l0,-2l0,-3l0,-1l0,-1l0,-1l0,-1l0,-1l0,-1l-2,-3l0,-2l0,-2l0,-2l0,-1l0,-1l0,-3l0,-1l0,-2l0,-1l0,-1l0,-1l1,-2l0,-1l2,-1l0,-1l0,-1l1,-2l1,-2l1,-1l2,-1l1,0l1,0l1,-1l2,0l1,-1l2,0l1,0l4,0l3,0l5,0l3,0l5,0l8,0l5,0l6,0l4,0l1,0l1,0l1,0l2,0l1,1l1,0l2,1l2,0l1,1l1,1l1,0l1,1l1,1l1,1l0,2l1,1l0,1l0,1l0,2l0,1l0,2l0,1l0,-1l-1,0l-1,0l-1,0l-2,0l-3,1l-3,0l-1,0l-2,0l-3,0l-1,0l-1,1l-1,0l-1,0l-1,0l-1,1l-1,0l-3,0l-1,0l-1,0l-1,0l0,1l-1,0l-1,0l-2,0l-1,0l-2,0l-3,0l-1,0l-4,0l-1,0l-1,0l-2,1l-1,0l-2,0l-1,0l-2,0l-1,0l-2,0l-2,0l-1,0l-2,0l-4,0l-3,0l-2,0l-1,0l-1,0l-1,0l-1,0l-2,0l-3,0l-1,0l-4,0l-1,0l-3,0l-2,0l-1,0l-3,-1l-6,0l-3,-1l-1,0l-5,-2l-2,0l-1,0l-2,0l-2,0l-2,-1l-2,0l-1,0l-2,0l-3,0l-1,0l-3,0l-5,0l-3,0l-2,0l-2,0l-3,0l-5,0l-5,0l-7,0l-4,0l-9,0l-9,0l-5,0l-15,0l-5,0l-5,0l-7,0l-6,0l-8,2l-3,0l-5,0l-9,0l-7,0l-6,1l-9,0l-9,1l-5,1l-6,3l-5,0l-5,1l-7,0l-3,1l-3,2l-13,2l-9,1l-15,2l-11,2l-7,1l-7,1l-8,3l-5,0l-7,0l-5,1l-11,0l-5,0l-7,0l-4,0l-4,0l-5,0l-2,0l-4,0l-4,0l-2,0l-4,-1l-1,-1l-2,0l-1,0l-2,-1l-2,-1l-2,-1l-1,0l-3,-1l-3,-2l-1,0l-2,-1l-4,-3l-2,-1l-4,-2l-1,-1l-1,0l-1,-2l-1,0l0,-1l0,-1l0,-1l1,0l1,0l1,0l1,0l1,0l1,0l1,0l1,0l1,0l1,0l1,0l1,0l1,0l1,0l1,0l1,0l0,1l1,0l1,1l1,0l2,0l0,1l3,2l2,1l1,1l3,2l0,1l1,1l0,2l3,2l0,1l0,1l1,2l2,2l1,2l0,1l3,7l1,4l0,1l3,10l1,5l1,6l1,2l1,4l0,2l1,3l1,2l1,3l0,2l2,5l0,5l2,9l5,12l3,11l1,10l1,5l0,4l0,9l3,6l0,3l0,4l0,6l1,5l4,7l0,3l1,5l0,5l1,3l0,5l0,7l2,8l1,5l1,5l0,2l0,2l1,3l0,1l0,4l0,2l0,2l0,3l0,2l0,4l0,4l0,3l0,4l0,3l0,1l0,6l0,2l0,3l0,1l0,2l0,1l0,3l0,2l0,1l0,1l0,1l0,1l-1,1l0,2l-1,2l0,2l-1,3l0,1l-1,0l0,1l-1,1l-1,1l-1,0l-1,0l-1,0l-2,0l-1,0l-2,0l-1,0l-1,0l-1,-1l-2,0l-1,-1l-2,-1l-1,0l0,-1l-1,0l-1,-1l-1,-1l-1,-1l0,-1l-1,-1l0,-2l-1,-1l0,-2l0,-1l0,-1l0,-2l0,-1l0,-1l0,-2l0,-1l0,-3l0,-3l0,-2l0,-1l0,-1l1,-1l0,-1l0,-1l1,-1l0,-1l0,-1l1,-1l1,-1l0,-1l1,0l1,-1l0,-1l1,0l2,0l1,0l1,0l1,0l1,0l1,0l2,0l3,0l1,0l2,0l3,0l1,0l2,0l2,0l6,0l4,0l3,0l2,0l2,0l4,0l3,0l4,0l1,0l3,0l2,0l1,0l3,0l2,0l2,0l4,0l1,0l2,0l1,0l2,0l7,0l3,0l2,0l5,0l4,-2l5,-1l5,0l2,0l2,0l2,0l2,0l2,0l3,0l2,0l2,0l2,-1l4,0l2,0l6,-2l6,-1l8,0l3,0l5,0l3,0l2,-1l3,0l4,-2l4,-1l1,0l2,0l4,0l1,0l2,0l2,0l2,0l4,0l5,0l1,0l1,0l3,1l0,1l2,0l3,0l2,1l3,1l0,1l2,1l2,1l1,0l1,1l1,2l0,2l1,1l0,3l0,2l0,1l0,2l0,1l0,1l-1,1l-2,1l0,1l-1,0l-1,0l-1,0l-1,1l-1,0l-1,0l-1,0l-1,0l-1,0l-1,0l-1,0l-1,0l-1,0l-2,-1l-1,0l-2,-1l0,-1l-1,0l-1,0l-1,-1l0,-1l-1,0l-1,-1l-1,-1l-1,-1l0,-2l-1,-1l0,-2l-1,0l0,-1l-1,-2l0,-1l-1,-3l0,-1l0,-1l-1,-2l0,-1l-1,-6l0,-1l-1,-3l0,-4l-1,-4l-1,-6l0,-5l0,-1l-1,-3l-1,-4l0,-2l0,-1l0,-2l0,-1l0,-4l-2,-2l0,-3l0,-3l0,-1l0,-1l0,-1l-1,-2l0,-1l0,-2l0,-1l0,-2l0,-1l0,-2l0,-3l0,-1l0,-3l0,-3l0,-2l0,-1l0,-2l0,-2l0,-2l0,-1l0,-2l0,-3l0,-1l0,-2l0,-2l0,-2l0,-2l0,-2l0,-3l0,-3l0,-2l0,-5l0,-3l0,-2l0,-2l0,-2l2,-4l0,-1l0,-2l0,-1l0,-1l1,-3l2,-1l0,-1l0,-3l0,-3l1,-4l1,-3l1,-2l0,-1l1,-2l1,-2l0,-1l0,-1l1,-2l1,-2l1,-2l1,-2l3,-5l4,-5l6,-6l1,-1l3,-3l5,-2l2,-2l4,-3l9,-5l9,-2l5,-3l5,-1l6,-1l10,-3l14,-5l13,-1l5,-1l7,0l9,-1l4,-2l2,0l4,0l5,0l3,0l5,0l7,0l11,0l7,0l11,0l9,0l20,-1l16,-2l11,0l10,0l5,0l5,0l6,0l5,0l5,0l6,0l5,0l10,0l5,0l6,3l2,1l5,2l3,2l4,2l4,3l3,3l2,2l0,1l1,2l1,1l1,3l0,2l0,1l0,4l0,1l0,1l0,2l0,2l0,2l0,1l-1,1l-1,2l-1,1l0,1l-1,0l0,1l-2,1l-1,0l-1,0l0,1l-1,0l-1,1l-1,0l-1,0l-1,0l-1,0l-1,0l-1,0l-1,1l-2,0l-2,0l-1,0l-2,0l-3,0l-1,0l-1,0l-7,0l-2,0l-1,-2l-1,0l-2,0l-1,-1l-1,-1l-1,-1l-2,-1l-1,-1l-1,-1l-1,0l0,-1l-1,0l-1,-3l-1,-2l0,-1l0,-1l0,-1l0,-1l1,-3l1,0l2,0l1,0l1,0l1,0l2,1l4,1l1,0l2,1l1,0l1,1l2,1l2,2l2,0l1,1l3,1l0,1l1,0l2,3l1,0l1,1l1,1l0,1l2,2l1,1l3,4l3,5l1,4l3,5l1,3l0,2l0,2l1,3l1,2l0,6l1,5l0,3l0,5l0,2l0,7l0,5l0,3l0,4l0,8l0,6l0,4l0,3l0,3l0,2l0,3l0,4l0,4l0,4l0,2l0,3l0,3l0,4l1,2l0,3l0,3l0,5l0,7l1,3l1,3l0,2l0,4l0,3l1,5l0,3l0,1l0,4l0,8l0,3l0,4l0,4l0,7l0,4l0,1l0,2l0,1l0,1" stroke="black" id="e1_freepath" style="fill: none; stroke-width: 1px;"/></svg>