<svg xmlns="http://www.w3.org/2000/svg" xmlns:xlink="http://www.w3.org/1999/xlink" width="1390px" height="900px" viewBox="0 0 1390 900" preserveAspectRatio="xMidYMid meet" ><rect id="svgEditorBackground" x="0" y="0" width="1390" height="900" style="fill: none; stroke: none;"/><path d="M847,34l1,1l0,2l3,2l0,1l1,1l1,2l1,1l1,2l1,2l1,1l0,2l4,4l0,2l1,2l1,1l0,2l1,1l0,2l2,2l0,1l0,1l1,1l0,3l1,3l1,2l0,1l0,2l1,2l0,1l0,2l0,2l0,1l1,1l0,2l1,2l0,1l0,2l0,3l0,3l0,1l1,3l0,2l1,1l0,2l0,1l0,2l0,2l0,3l1,2l0,1l0,3l0,1l0,1l0,2l0,3l1,6l1,4l0,1l0,2l1,3l0,1l0,1l0,2l0,1l0,3l0,2l0,2l0,2l0,1l0,2l0,3l0,2l0,6l0,4l0,5l0,3l0,3l0,1l0,2l0,4l0,1l0,1l-1,1l0,3l0,2l-1,1l-1,2l0,2l-2,6l-1,4l-3,7l-1,2l0,2l-2,2l0,2l-1,1l-2,3l-1,1l0,2l-1,1l-1,1l-2,2l-1,2l-1,1l-1,1l-2,3l-2,2l-4,4l-5,5l-2,1l-2,2l-4,3l-3,2l-3,2l-3,2l-1,1l-1,1l-4,3l-1,1l-2,1l-2,2l-3,2l-2,1l-2,1l-5,1l-2,1l-1,0l-4,1l-3,1l-2,0l-3,1l-3,0l-1,0l-4,0l-3,0l-1,0l-3,0l-5,1l-3,0l-2,0l-3,0l-3,0l-1,0l-2,0l-1,0l-1,0l-2,0l-1,0l-1,0l-1,0l-2,0l-2,0l-2,0l-2,-1l-1,0l-3,-1l-1,-1l-3,0l-2,-2l-1,0l-1,0l-1,0l-1,0l-1,-1l-1,-1l-1,-1l-3,0l-1,-1l-2,0l-1,-1l-2,-1l-3,-3l-1,0l-1,-1l-1,-1l-1,-1l-1,0l-1,-1l-1,-1l-1,-1l-2,-2l-1,-1l-1,0l0,-1l0,-1l-2,-2l-1,-1l-1,-1l-1,-1l0,-1l-1,-1l-1,-1l-1,-1l-1,-1l0,-1l-1,-1l0,-2l0,-1l0,-2l-1,-1l-1,-2l0,-4l-1,-3l0,-2l0,-1l0,-2l-1,-1l0,-2l0,-1l0,-2l0,-1l0,-2l0,-1l0,-2l0,-2l0,-1l0,-1l0,-2l0,-1l0,-1l0,-2l0,-1l0,-1l0,-1l1,-1l1,-2l0,-1l1,-1l0,-1l1,-1l0,-1l2,-3l2,-4l1,-2l0,-1l1,-1l1,-1l2,-3l0,-1l1,-1l2,-1l1,-1l1,0l2,-1l2,-1l2,-1l7,-1l4,0l3,-2l5,0l3,-1l7,0l6,-1l5,0l5,-1l9,-2l3,0l9,-2l5,0l6,-1l7,-1l11,-2l12,0l11,0l5,0l2,0l5,0l3,0l4,0l3,1l5,2l2,0l3,1l2,1l1,1l7,3l2,2l3,1l6,5l5,4l3,4l4,3l8,8l4,4l2,2l3,4l3,4l2,2l2,3l3,4l6,10l5,5l1,4l3,2l1,2l4,7l3,7l4,9l1,2l0,3l0,2l0,4l1,5l0,3l0,5l2,3l0,2l1,5l0,4l1,5l0,4l0,11l0,14l0,11l0,12l0,8l-3,12l0,4l-1,4l-1,4l0,5l-1,5l-2,5l0,5l-1,4l-1,4l-4,10l-2,3l-2,3l-3,8l-5,12l-3,6l-3,4l-1,2l-3,5l-2,3l-2,3l-2,2l-2,2l-2,5l-1,1l-2,2l-2,3l-1,2l-3,2l-2,1l-6,6l-4,2l-1,1l-2,1l-1,1l-1,1l-1,1l-2,0l0,1l-2,0l-2,2l-1,0l-1,1l-4,1l-2,2l-2,0l-4,1l-4,1l-6,1l-3,1l-2,0l-3,1l-1,0l-2,1l-1,0l-1,1l-2,0l-1,0l-4,0l-4,3l-4,0l-4,1l-5,0l-1,1l-1,0l-1,0l-2,0l-1,0l-2,1l-2,0l-1,0l-4,0l-1,0l-2,1l-1,0l-4,1l-1,1l-1,0l-2,0l-2,1l-2,0l-1,0l-1,0l-1,0l-1,0l-1,0l-3,0l-2,0l-2,0l-4,-2l-2,-1l-4,-1l-4,-1l-3,0l-2,-1l-1,0l-1,0l-1,-1l-1,0l-1,0l-1,-1l-1,0l-2,-1l-3,-1l-1,0l0,-1l-1,0l-3,-2l-2,-2l-3,-2l-1,-1l-1,-1l-1,-1l-2,-1l0,-1l-2,-1l0,-1l-1,-1l0,-1l-1,-1l-1,-1l0,-1l-2,-3l-1,-2l-1,-4l0,-4l-1,-1l-1,-3l0,-1l0,-3l0,-1l0,-1l0,-4l0,-1l-1,-2l0,-2l0,-2l0,-1l0,-5l0,-3l0,-3l0,-1l0,-2l0,-1l0,-2l0,-1l0,-2l0,-1l0,-1l0,-2l0,-1l0,-3l2,-3l0,-1l1,-2l2,-3l1,-3l1,0l1,-2l1,-1l2,-2l1,-1l1,-1l1,-2l1,-1l1,-1l2,-2l1,-2l1,0l3,-2l2,-1l5,-3l2,-1l3,-1l1,0l3,-2l2,0l3,-1l3,0l2,0l3,-1l7,-1l2,0l5,-2l5,0l6,-1l3,0l5,-1l5,0l12,-3l6,0l5,-1l5,-1l3,0l5,-1l8,-1l4,-1l5,0l4,0l2,0l5,0l5,0l3,0l3,0l12,0l5,0l5,0l8,0l8,0l4,0l1,0l3,0l2,1l2,1l4,0l3,0l3,2l2,0l3,0l4,1l1,0l6,1l2,2l2,0l4,1l4,2l2,1l3,2l3,2l1,0l3,2l2,1l3,2l1,1l3,2l3,2l2,2l5,1l2,3l5,3l4,2l3,2l3,3l1,1l2,2l1,1l1,1l1,1l1,2l0,1l5,6l2,3l1,2l3,3l1,2l4,7l4,7l2,6l3,5l2,5l2,3l0,2l0,2l1,4l2,3l1,3l0,2l0,2l1,2l2,5l0,2l0,2l2,6l2,6l0,6l0,3l0,1l0,3l0,1l0,2l0,1l0,2l0,4l0,2l0,2l0,1l0,3l0,2l-1,4l-1,3l-1,3l-1,1l-1,2l0,1l-2,5l-4,6l-2,2l-2,4l-3,3l-2,4l-2,2l-6,7l-10,11l-9,10l-6,5l-10,7l-17,10l-10,6l-4,2l-6,4l-5,2l-5,3l-2,1l-4,3l-7,2l-3,1l-7,3l-15,7l-7,3l-7,2l-16,9l-14,6l-11,5l-15,4l-7,3l-9,2l-9,3l-6,1l-14,3l-9,4l-14,3l-14,5l-11,3l-14,3l-12,1l-8,3l-14,3l-21,2l-21,2l-20,4l-11,1l-9,0l-11,2l-9,0l-11,0l-11,2l-14,2l-14,1l-11,0l-14,0l-46,5l-25,0l-25,0l-25,0l-16,0l-5,0l-11,-1l-7,-2l-11,-1l-7,-3l-7,-1l-8,-4l-20,-5l-9,-4l-7,-4l-16,-8l-6,-5l-6,-3l-11,-9l-12,-9l-11,-14l-4,-3l-7,-4l-2,-2l-6,-7l-4,-3l-3,-4l-7,-10l-3,-5l-2,-3l-5,-10l-7,-12l-8,-14l-4,-10l-4,-8l-2,-9l-3,-5l-1,-3l-2,-9l-1,-5l-1,-4l-4,-12l-4,-13l-2,-7l-1,-6l-3,-16l-2,-14l-3,-20l-1,-17l-4,-16l0,-9l-1,-6l0,-7l0,-11l0,-7l0,-6l0,-12l0,-13l0,-11l0,-9l0,-20l0,-16l0,-13l3,-16l1,-12l1,-6l1,-9l0,-9l2,-5l1,-6l1,-5l1,-5l4,-8l0,-5l1,-3l2,-8l3,-12l3,-8l4,-11l4,-10l3,-7l2,-4l2,-5l3,-5l2,-3l4,-6l5,-7l9,-10l7,-8l12,-11l9,-8l10,-7l8,-6l7,-3l3,-2l4,-2l5,-2l5,-1l5,-3l4,-2l10,-4l16,-4l11,-3l7,-2l6,-1l18,-3l21,-5l18,-4l9,-1l14,-2l14,-1l8,-3l14,0l12,-3l6,0l16,-3l6,0l5,-1l3,0l6,-1l8,0l8,0l6,0l4,0l3,0l5,0l3,0l3,0l9,1l11,2l5,1l6,2l8,2l7,4l11,3l5,1l5,1l4,1l5,1l3,1l5,1l5,2l5,1l5,2l11,5l10,5l10,4l3,2l5,2l7,4l6,4l1,0l3,2l6,5l3,2l4,3l8,7l5,5l4,6l2,2l2,3l4,6l3,4l3,6l2,6l3,4l1,4l0,3l3,4l2,2l2,4l2,4l5,7l4,4l1,4l6,6l4,7l2,5l3,4l4,6l2,4l2,3l1,1l3,7l2,5l3,2l3,7l0,1l2,3l3,7l4,6l3,6l2,6l3,5l0,1l1,4l0,2l0,3l2,2l0,2l1,5l1,5l2,4l1,3l3,6l1,3l1,5l0,1l1,2l1,3l0,1l2,5l0,2l1,3l1,2l0,1l1,4l0,6l0,1l0,7l1,4l0,4l0,4l0,5l0,5l0,3l0,4l0,4l0,5l0,5l0,7l-2,10l-2,12l-3,8l-3,5l-3,6l-1,4l-1,5l0,1l0,3l-2,2l0,1l-2,5l0,4l-2,5l-1,2l0,3l-1,7l-2,4l-2,5l-1,5l-1,1l0,1l0,4l-1,2l0,3l-1,2l0,2l-1,3l-1,3l0,1l0,2l0,3l-2,2l0,2l-1,3l-2,4l-1,2l-1,1l0,3l-1,1l-1,1l0,1l0,2l-1,1l-1,4l0,2l-1,3l0,3l-2,2l0,1l-1,1l0,1l0,1l0,2l0,1l-1,0l0,2l-1,3l-1,3l-1,3l-1,4l0,3l-1,0l0,2l-1,2l0,1l-1,1l-1,4l-1,1l-1,2l-1,3l-2,2l-1,1l-2,3l-3,3l0,1l-3,2l-2,1l-1,1l-4,2l-1,1l-2,1l-3,1l-6,2l-6,4l-3,2l-4,2l-2,0l-4,3l-2,1l-2,1l-3,0l-5,3l-2,2l-1,0l-1,1l-3,1l-2,1l-4,1l-6,3l-1,0l-4,1l-6,2l-3,1l-4,1l-5,1l-2,0l-3,0l-3,0l-9,2l-2,0l-3,0l-7,0l-5,0l-4,0l-3,0l-2,0l-5,0l-2,0l-2,-1l-2,-1l-3,0l-5,-1l-3,-3l-1,0l-5,-2l-5,-2l-4,-3l-3,-2l-1,-2l-1,-1l-2,-1l-1,-1l-1,-1l0,-2l-3,-4l-1,-2l-1,-2l-1,-6l-2,-2l0,-3l-2,-4l-2,-8l-1,-5l-3,-7l0,-5l-1,-3l0,-2l-2,-4l-1,-4l-1,-5l-1,-3l-1,-4l-1,-2l-1,-9l-1,-8l-2,-5l-1,-5l-1,-10l-1,-10l0,-15l0,-7l0,-9l0,-8l0,-7l0,-7l-2,-11l-2,-7l0,-13l0,-9l0,-9l0,-17l-2,-16l0,-15l0,-20l0,-20l0,-14l0,-9l0,-11l0,-12l0,-11l0,-14l0,-11l0,-25l0,-18l0,-13l-2,-16l-3,-11l-4,-12l0,-5l-3,-2l-1,-1l-2,-1l-3,-2l-1,-1l-5,-1l-2,0l-3,0l-5,1l-8,3l-9,6l-5,4l-3,3l-3,4l-1,2l-2,5l-2,3l-2,5l-1,5l-3,5l-2,9l-3,8l0,9l-1,8l-2,8l0,10l-6,17l-1,9l-2,7l-4,9l0,6l-1,7l-1,9l-2,11l-2,15l-1,12l0,11l0,12l0,8l0,9l0,5l0,3l0,5l0,12l0,3l0,7l2,4l1,7l0,5l0,9l2,11l2,13l1,10l1,10l3,20l0,5l0,7l0,5l0,6l0,14l0,7l0,4l0,10l0,10l-3,10l-2,5l-1,2l-1,3l-1,1l-1,2l-1,2l-2,1l-2,1l-1,1l-1,1l-1,1l-5,3l-1,1l-1,0l-5,2l-5,3l-3,1l-2,0l-2,1l-2,1l-1,1l-4,0l-6,1l-3,0l-5,1l-8,2l-8,0l-5,1l-3,0l-6,1l-5,1l-5,1l-2,0l-2,0l-4,0l-2,0l-2,0l-3,0l-3,0l-5,0l-4,0l-3,0l-4,0l-6,0l-2,-1l-13,-2l-5,-2l-2,-1l-4,-2l-2,-1l-5,-1l-1,-1l-4,-3l-1,0l-2,-3l-1,-1l-4,-1l-2,-2l-3,-4l-3,-3l-2,-4l-2,-4l-1,-1l-1,-3l-1,-2l-1,-6l-2,-10l-1,-4l0,-7l-1,-5l-2,-6l0,-9l0,-14l0,-13l0,-12l0,-13l0,-5l0,-5l2,-5l3,-10l2,-5l1,-4l2,-4l2,-3l1,-5l6,-7l7,-10l8,-9l6,-4l9,-6l4,-3l5,-2l5,-5l5,-2l5,-3l10,-4l11,-4l5,-2l3,0l10,-2l9,-2l9,-1l9,-1l7,0l5,0l5,-1l6,0l7,-2l7,0l6,-1l14,-1l15,-1l14,-4l13,-2l15,-2l14,-2l10,-3l11,-1l5,0l3,-1l7,-1l6,-2l5,0l18,-4l15,-5l12,-3l1,0l3,-2l4,-3l5,-3l2,-3l1,-2l1,-2l1,-2l1,-2l3,-5l0,-1l2,-10l3,-9l1,-8l0,-8l0,-7l0,-10l0,-16l0,-6l0,-5l0,-5l0,-7l0,-4l0,-5l0,-9l0,-13l0,-18l0,-7l0,-5l-2,-11l-2,-8l-3,-8l-5,-9l0,-1l-2,-3l-3,-4l-4,-4l-1,-1l-4,-4l-3,-2l-10,-4l-5,-2l-5,-2l-7,0l-7,-1l-9,0l-9,0l-5,0l-6,0l-5,0l-7,0l-6,2l-30,5l-15,4l-14,5l-7,1l-9,3l-12,2l-5,2l-3,2l-3,1l-5,1l-2,1l-2,1l-2,0l-6,4l-8,2l-9,4l-5,4l-4,2l-5,5l-2,1l-4,4l-3,3l-2,2l-2,2l-2,4l0,2l-3,4l0,2l-1,1l-1,2l-1,2l-2,4l-1,4l-1,2l-2,3l0,2l-1,3l-3,7l0,2l0,2l0,2l-1,1l0,4l-1,4l0,5l-1,5l-1,3l-1,4l0,1l0,2l0,1l0,5l-1,1l0,2l-1,3l-1,2l0,2l-1,3l0,2l0,2l-1,2l-1,2l0,2l0,1l0,1" stroke="black" id="e1_freepath" style="fill: none; stroke-width: 1px;"/></svg>