<?xml version="1.0" encoding="UTF-8"?>
<!-- Created with EazyDraw for Mac ( http://www.eazydraw.com/ ) -->

<svg
    version="1.1"
    xmlns:dc="http://purl.org/dc/elements/1.1/"
    xmlns:cc="http://creativecommons.org/ns#"
    xmlns:rdf="http://www.w3.org/1999/02/22-rdf-syntax-ns#"
    xmlns:svg="http://www.w3.org/2000/svg"
    xmlns:xlink="http://www.w3.org/1999/xlink"
    xmlns="http://www.w3.org/2000/svg"
    width="475.201750141"
    height="562.450646305"
    viewBox="0, 0, 475.201750141, 562.450646305"
    preserveAspectRatio="none"
    id="svg2">
   <defs
       id="defs_2C9F2BBC"/>
   <metadata
       id="metadata7">
      <rdf:RDF>
         <cc:Work
             rdf:about="">
            <dc:format>image/svg+xml</dc:format>
            <dc:type rdf:resource="http://purl.org/dc/dcmitype/StillImage"/>
            <dc:title></dc:title>
         </cc:Work>
      </rdf:RDF>
   </metadata>
   <g
       id="layer_Paper"
       style="fill:#000000;fill-opacity:1;stroke:#000000;stroke-opacity:1;fill-rule:nonzero;stroke-linecap:square;stroke-linejoin:miter;stroke-width:1;stroke-miterlimit:10">
      <polyline
          style="fill:none"
          id="05B379BC"
          points="39.474695398,0.501580262091 38.7506849814,229.217075053 23.7439802976,246.589655315 15.0416962149,248.975536619 6.599014658345,245.790680894 1.640753026418,238.25159478 2.060798737356,229.237952927 7.698708606409,222.192660161 16.4009926891,219.806778858 24.8436742456,222.991634583 38.6940881146,243.147938073 38.5713849202,276.005827044 23.9409465206,291.665274452 15.2386624379,294.051155755 6.795980881351,290.866300031 1.837719249425,283.327213916 2.257764960363,274.313572064 7.895674829416,267.268279298 16.5979589121,264.882397995 25.0406404686,268.067253719 38.1513392092,285.019468896 38.5253941874,302.527864273 38.2558933147,319.663689637 23.8175916608,337.050989297 15.1153075781,339.4368706 6.672626021549,336.252014876 1.714364389623,328.712928762 2.134410100561,319.699286909 2.134410100561,319.699286909 7.772319969614,312.653994143 16.4746040523,310.26811284 24.9172856088,313.452968564 38.7642672937,329.787347267 39.176344083,347.198852049 37.679773523,503.89936672 40.3789051577,525.780312353 52.2587730077,541.661399696 68.1604584007,550.630346856 84.6042526897,553.20405422 110.933060598,545.584523286 125.00312311,530.474614404 132.922221041,518.272844885 141.997481856,500.03608547 139.166078125,328.184339555 125.31909644,312.608351095 115.384687663,309.469393771 115.384687663,309.469393771 108.1741308,311.809376674 102.536220931,318.85466944 102.11617522,327.868311293 107.074436852,335.407397407 115.517118409,338.592253131 124.219402492,336.206371828 138.74878394,317.119093283 139.166078125,285.132246088 125.186665694,268.111653357 116.743984138,264.926797633 108.041700055,267.312678936 102.403790186,274.357971702 101.983744475,283.371613554 106.942006107,290.910699669 115.384687663,294.095555393 124.086971746,291.70967409 139.81128394,274.837843283 139.166078125,245.554400416 124.92957328,223.569057219 116.486891723,220.384201495 107.78460764,222.770082798 102.146697771,229.815375564 101.72665206,238.829017416 106.684913692,246.368103531 115.127595249,249.552959255 123.829879332,247.167077952 139.166078125,231.210888911 142.13550269,115.218377137 145.454077528,94.74383759 158.916299821,77.179242756 172.100144943,69.278956872 191.13550269,66.27046047 209.917927757,69.02277095 224.332493003,78.382096659 237.575833288,99.013809357 240.440190189,115.575147971 237.662797553,155.570055675 237.272651128,231.365187033 252.754752298,246.28618073 261.45703638,248.672062033 269.899717937,245.487206309 274.857979569,237.948120195 274.437933858,228.934478342 268.800023989,221.889185576 260.097739906,219.503304273 251.65505835,222.688159997 237.372260503,240.870069846 237.452338628,276.480421408 252.497659883,290.828776868 261.199943966,293.214658171 269.642625522,290.029802447 274.600887154,282.490716333 274.180841443,273.47707448 268.542931574,266.431781714 261.45703638,264.045900411 251.397965935,267.230756135 237.76581519,286.200147971 237.180854253,319.691358908 252.365229138,335.325474606 261.06751322,337.711355909 269.510194777,334.526500185 274.468456409,326.987414071 274.048410698,317.973772218 268.410500829,310.928479452 259.708216746,308.542598149 251.26553519,311.727453873 237.688666753,329.439405783 235.856205815,510.444288595 241.145008963,533.590323197 252.827082507,547.84645983 276.789324444,559.032450377 285.160893315,559.748976095 312.30786201,551.59880023 328.076827145,538.226068465 334.465580815,510.444288595 332.73050269,329.228468283 319.018384268,312.38950085 310.575702712,309.204645126 301.873418629,311.590526429 296.23550876,318.635819195 295.815463049,327.649461047 300.773724681,335.188547162 309.216406237,338.373402886 317.91869032,335.987521583 332.87894019,319.158155783 333.185580815,285.416944845 318.885953523,267.892803112 310.443271966,264.707947387 301.740987884,267.093828691 296.103078014,274.139121456 295.683032304,283.152763309 300.641293935,290.691849423 309.083975492,293.876705148 317.786259575,291.490823845 332.68753394,275.717726095 333.276401127,242.310499533 318.628861108,223.350206974 310.186179552,220.165351249 301.483895469,222.551232552 295.8459856,229.596525318 295.425939889,238.610167171 300.384201521,246.149253285 308.826883077,249.33410901 317.52916716,246.948227706 332.973666752,231.683546408 335.739018315,109.502882345 340.889502706,86.37997718 360.056936257,67.002573542 385.043705815,60.198194845 407.831886516,63.586749656 420.905845914,74.902847842 432.800365194,94.124111644 434.348393315,109.502882345 436.001987065,233.522413595 451.457769843,246.524146642 460.160053926,248.910027945 468.602735482,245.725172221 473.560997114,238.186086107 473.140951403,229.172444254 467.503041534,222.127151488 458.800757452,219.741270185 450.358075895,222.926125909 435.931674565,243.507765158 435.912143315,275.92671047 451.200677429,291.06674278 459.902961511,293.452624084 468.345643068,290.267768359 473.3039047,282.728682245 472.883858989,273.715040392 467.24594912,266.669747626 458.543665037,264.283866323 450.100983481,267.468722047 436.026401127,285.541944845 436.354526127,320.289015158 451.068246683,335.563440519 459.770530766,337.949321822 468.213212322,334.764466097 473.171473954,327.225379983 472.751428243,318.21173813 467.113518374,311.166445365 458.411234292,308.780564061 449.968552735,311.965419786 436.362338627,330.838819845 435.26050269,510.917921408"/>
   </g>
</svg>
