<svg xmlns="http://www.w3.org/2000/svg" xmlns:xlink="http://www.w3.org/1999/xlink" width="1390px" height="900px" viewBox="0 0 1390 900" preserveAspectRatio="xMidYMid meet" ><rect id="svgEditorBackground" x="0" y="0" width="1390" height="900" style="fill: none; stroke: none;"/><path d="M845,43l0,1l0,1l0,1l0,1l0,1l0,1l0,1l0,1l0,2l0,1l0,1l0,1l0,1l0,1l0,1l0,2l0,3l0,2l0,3l0,1l0,2l0,1l1,2l0,1l1,2l1,1l0,2l0,3l0,2l0,2l1,5l0,6l2,6l0,4l1,8l0,4l0,3l1,3l2,5l0,5l1,3l0,5l1,6l1,5l0,5l0,5l0,5l2,8l1,10l0,10l0,7l0,8l0,3l0,3l0,2l0,3l0,4l0,4l0,2l0,2l0,4l0,3l0,2l0,3l0,3l0,4l0,2l0,5l0,4l0,3l0,2l0,4l0,3l0,3l0,2l0,5l0,2l0,5l0,3l0,2l0,2l0,2l0,3l0,3l0,7l0,8l0,8l0,5l0,5l0,5l0,4l0,5l0,7l0,3l0,2l0,5l0,5l0,6l0,5l0,9l0,11l0,10l0,10l0,8l0,3l0,5l0,3l0,5l0,3l0,5l0,5l0,5l0,5l0,3l0,3l0,2l0,3l0,3l0,8l0,7l0,4l0,6l0,3l0,5l0,3l0,5l0,5l0,3l0,2l-1,4l0,4l0,4l-1,3l-1,7l-1,6l-1,6l0,5l0,1l0,3l0,1l0,2l0,5l0,1l0,5l0,5l0,3l-1,5l0,3l-1,5l0,5l-3,12l0,5l-2,8l0,6l-1,4l0,5l-1,2l0,3l-1,5l0,3l-1,5l0,3l-2,3l0,3l0,2l0,4l0,1l0,3l-1,2l-1,4l0,4l0,4l0,2l0,1l0,5l0,3l0,5l0,4l-1,2l0,3l-1,3l0,3l0,2l0,4l-1,4l-2,7l-1,4l-1,5l-2,3l0,1l0,2l0,1l-1,2l-3,4l-1,1l-1,2l-1,1l0,2l-2,2l-1,1l-1,2l-1,1l-2,2l-2,1l-2,1l-1,1l-2,1l-1,1l-1,0l-1,0l-3,2l-1,0l-2,0l-1,1l-2,0l-1,1l-2,0l-1,0l-4,1l-4,1l-1,0l-2,0l-4,0l-2,0l-1,0l-2,0l-1,0l-2,0l-4,0l-1,0l-3,0l-1,0l-2,0l-1,0l-2,-1l-3,0l-3,-1l-6,-1l-4,-2l-5,-2l-1,-1l-3,-1l-4,-1l-2,-1l-1,-1l-1,0l-2,-3l-2,-1l-2,-2l-3,-2l-2,-2l-1,-2l-3,-3l-4,-6l-3,-5l-5,-7l-1,-3l-1,-3l-2,-3l0,-2l-1,-5l-1,-5l-2,-3l-1,-3l-1,-4l0,-2l0,-3l0,-3l-2,-4l-1,-6l0,-8l-1,-10l0,-4l0,-3l0,-4l0,-3l0,-1l0,-3l0,-3l0,-2l0,-4l0,-3l0,-3l0,-2l0,-3l0,-3l0,-2l0,-3l0,-4l0,-7l0,-5l0,-2l0,-3l0,-2l0,-5l0,-3l0,-4l0,-4l0,-1l0,-5l0,-3l0,-4l0,-3l0,-5l0,-3l0,-3l0,-7l0,-6l0,-6l0,-1l0,-2l0,-4l0,-3l0,-2l1,-5l0,-3l0,-5l0,-2l0,-3l0,-2l0,-8l0,-5l0,-8l0,-8l0,-7l0,-5l0,-7l0,-4l0,-5l0,-3l0,-5l0,-7l0,-3l0,-7l0,-3l0,-10l0,-7l0,-3l0,-10l0,-4l0,-3l0,-1l0,-5l0,-4l0,-3l0,-5l0,-6l0,-3l0,-4l0,-3l0,-3l0,-5l0,-5l0,-2l0,-6l0,-6l0,-9l0,-10l0,-3l0,-2l0,-1l0,-3l0,-1l0,-3l-1,-1l0,-3l0,-4l-2,-3l0,-2l-1,-4l0,-3l-1,-3l-3,-8l-1,-4l-2,-6l0,-2l-1,-5l-1,-3l-2,-3l0,-2l0,-4l-1,-3l0,-3l-1,-1l-2,-8l0,-3l0,-3l-1,-3l0,-1l-2,-3l-1,-2l0,-1l0,-2l-1,-1l-1,-1l0,-1l-1,-2l-1,-1l0,-1l-1,-1l-2,-1l-2,-2l-1,0l-1,0l-3,-1l-4,0l-1,0l-2,0l-1,0l-2,-1l-1,0l-2,0l-1,0l-3,0l-2,0l-1,0l-3,0l-3,0l-3,0l-1,1l-2,1l-1,0l-1,0l-2,2l-2,0l-1,2l-3,2l-1,1l-1,1l-1,2l-2,1l-2,2l-2,1l-2,3l-1,1l0,1l-1,1l-1,1l0,1l-1,2l-1,1l0,2l-1,2l0,3l-1,1l-1,4l0,3l-1,1l-2,6l-2,6l0,6l0,2l0,5l-2,4l0,6l-1,3l0,5l-1,5l0,3l-1,4l0,4l0,2l0,5l0,3l0,7l0,5l0,8l0,7l0,3l0,3l0,2l0,2l0,4l0,4l0,4l0,3l0,2l0,3l0,5l0,3l0,7l0,11l0,10l0,8l0,7l0,2l0,3l0,3l0,4l0,2l0,3l0,3l0,3l0,2l0,5l0,3l0,7l0,7l0,8l0,9l-2,7l-1,5l0,9l0,4l-1,5l0,7l0,8l-1,5l-1,6l-2,8l-1,7l0,3l0,5l0,5l-2,9l-2,9l-1,5l-2,5l-1,5l-1,4l-1,4l-1,2l-1,4l-2,4l-2,3l-1,5l-1,5l-3,3l-8,13l-3,5l-6,8l-7,8l-3,2l-3,4l-2,2l-6,5l-2,2l-4,4l-3,2l-6,4l-5,3l-4,3l-4,2l-4,2l-5,1l-4,2l-9,4l-11,2l-16,4l-9,0l-11,2l-9,1l-11,0l-9,0l-11,0l-9,0l-11,0l-9,0l-11,0l-9,0l-15,0l-23,-5l-15,-2l-16,-6l-9,-4l-4,-2l-7,-3l-5,-2l-5,-1l-6,-3l-15,-8l-5,-3l-11,-5l-2,-2l-10,-5l-8,-5l-10,-7l-7,-8l-9,-10l-3,-2l-2,-4l-2,-4l-5,-6l-1,-2l-6,-9l-5,-5l-3,-4l-7,-15l-2,-5l-4,-5l-5,-10l-5,-9l-7,-12l-5,-12l-3,-5l-3,-9l-3,-6l-3,-8l-2,-7l-2,-5l-3,-6l-2,-7l-7,-18l-4,-11l-1,-7l-1,-5l-2,-10l-5,-15l0,-7l-2,-6l-1,-5l0,-5l-3,-7l0,-4l-1,-5l-1,-8l-1,-10l0,-3l0,-5l0,-10l0,-11l0,-10l0,-4l0,-7l0,-7l0,-6l1,-5l2,-5l2,-5l1,-3l2,-5l2,-7l4,-6l0,-4l9,-13l2,-4l10,-13l5,-5l10,-10l2,-1l4,-4l3,-1l5,-5l4,-3l4,-1l6,-3l5,-3l3,0l5,-2l5,-2l9,-4l9,-2l7,-3l8,-1l8,-3l7,0l7,-1l8,-2l7,0l5,-2l5,0l6,-1l10,-1l10,-1l9,-2l10,0l10,0l6,0l5,0l2,0l3,0l5,0l3,0l5,0l3,0l4,0l5,0l2,0l1,0l4,1l3,1l8,1l3,0l4,1l5,0l2,1l4,1l4,1l3,1l5,1l8,4l5,1l10,5l9,4l7,4l9,6l3,2l6,4l6,6l5,2l6,7l4,3l4,3l4,4l4,4l4,6l8,10l2,4l3,4l6,8l6,8l4,9l1,5l3,5l1,3l2,5l1,3l2,5l2,3l2,7l3,8l1,4l0,1l1,8l2,5l2,6l2,6l1,8l0,3l1,2l0,5l2,3l0,5l0,3l0,3l0,2l0,5l0,7l0,5l0,3l0,9l0,7l0,8l0,8l1,4l0,4l0,4l0,6l0,2l0,5l0,5l0,3l0,5l0,7l0,9l-2,5l0,2l-1,10l-2,13l-2,10l0,1l-1,5l0,2l-1,7l-1,2l-3,8l0,2l0,3l-3,7l-1,3l-1,2l-2,5l-3,4l-2,6l-3,2l0,2l-3,4l-3,2l-2,4l-5,6l-1,1l-3,3l-2,2l-2,1l-6,4l-2,1l-2,0l-4,2l-9,4l-4,1l-3,0l-3,1l-2,0l-5,3l-3,0l-2,1l-2,0l-8,3l-3,0l-5,2l-8,0l-10,3l-10,1l-11,1l-12,0l-6,2l-3,0l-4,0l-4,0l-5,1l-4,0l-2,0l-5,0l-6,0l-3,0l-1,-1l-8,-1l-10,-5l-8,-5l-5,-3l-5,-3l-2,-2l-4,-3l-4,-4l-6,-4l-6,-7l-4,-4l-5,-5l-7,-10l-2,-4l-5,-5l-6,-8l-7,-8l-5,-7l-9,-9l-3,-4l-4,-6l-2,-2l-4,-4l-3,-2l-4,-6l-3,-4l-7,-10l-8,-14l-4,-8l-7,-13l-6,-15l-6,-16l-6,-9l-2,-7l-3,-7l-1,-6l-2,-9l-3,-7l-1,-5l-3,-13l-2,-14l-1,-5l0,-4l-2,-10l0,-7l0,-8l0,-10l0,-5l1,-3l2,-5l0,-2l1,-3l4,-10l2,-5l2,-3l2,-3l2,-4l2,-2l2,-2l5,-7l5,-5l7,-5l4,-3l2,-1l4,-2l4,-3l3,0l8,-4l12,-3l5,-2l6,-1l10,-3l5,-1l3,-1l11,-3l12,-2l5,0l5,-2l4,0l5,0l5,0l5,0l6,0l16,0l7,0l5,0l10,1l6,1l6,3l9,4l7,2l4,2l2,1l6,3l4,2l5,3l3,2l8,5l8,6l11,7l3,4l4,4l7,5l7,8l7,8l2,5l3,4l2,5l3,4l1,4l0,2l3,5l1,7l2,7l3,8l2,12l3,15l1,13l0,10l0,8l-1,3l-1,5l-2,5l-2,5l-2,3l-3,7l-2,3l-3,4l-4,8l-4,6l-2,2l-2,2l-5,6l-2,2l-3,1l-1,1l-2,1l-1,0l-2,3l-1,0l-3,0l-2,1l-2,0l-7,3l-5,0l-5,0l-3,1l-10,0l-8,0l-4,0l-1,0l-3,0l-2,0l-1,0l-5,0l-3,0l-3,0l-7,0l-5,0l-5,0l-8,0l-6,0l-7,-2l-7,-2l-5,-3l-2,0l-1,-1l-4,-3l-2,0l-4,-3l-8,-6l-8,-4l-2,-3l-4,-6l-4,-7l-5,-7l-3,-8l-1,-2l-2,-5l-2,-5l0,-3l-1,-2l-1,-4l-2,-6l-1,-5l0,-5l-2,-8l0,-6l0,-8l0,-8l0,-5l0,-3l0,-2l0,-2l1,-2l1,-4l2,-4l0,-1l1,-2l3,-3l3,-5l1,-1l0,-1l2,-2l5,-3l7,-3l1,-1l3,-1l5,-2l3,0l5,-1l10,-1l3,0l2,0l5,-1l5,0l5,0l7,0l5,0l5,0l1,0l3,0l4,0l2,1l2,1l5,2l3,1l4,1l1,1l4,4l2,3l4,3l1,1l1,2l2,2l1,2l2,5l1,2l1,3l3,7l0,3l0,3l0,2l0,3l0,3l0,4l0,2l0,2l-1,1l-1,2l0,2l0,1l-1,1l0,1l-1,2l-1,1l0,2l-1,1l0,1l-1,1l-1,1l-1,1l-1,1l-1,1l-1,1l-1,1l-1,1l-1,0l-1,2l-1,0l-2,1l-1,0l-1,0l-2,0l-2,1l-1,0l-1,0l-2,0l-2,0l-1,0l-2,0l-3,0l-3,0l0,-1l-2,0l-2,-1l-1,0l0,-1l-4,0l0,-1l-1,0l-1,-1l-2,-2l-1,0l-1,-1l-2,-1l-2,-2l-1,-2l-1,-1l-2,-2l0,-1" stroke="black" id="e1_freepath" style="fill: none; stroke-width: 1px;"/></svg>