<?xml version="1.0" encoding="UTF-8"?>
<!-- Created with EazyDraw for Mac ( http://www.eazydraw.com/ ) -->

<svg
    version="1.1"
    xmlns:dc="http://purl.org/dc/elements/1.1/"
    xmlns:cc="http://creativecommons.org/ns#"
    xmlns:rdf="http://www.w3.org/1999/02/22-rdf-syntax-ns#"
    xmlns:svg="http://www.w3.org/2000/svg"
    xmlns:xlink="http://www.w3.org/1999/xlink"
    xmlns="http://www.w3.org/2000/svg"
    width="523.912573404"
    height="598.659775794"
    viewBox="0, 0, 523.912573404, 598.659775794"
    preserveAspectRatio="none"
    id="svg2">
   <defs
       id="defs_EC61610D"/>
   <metadata
       id="metadata7">
      <rdf:RDF>
         <cc:Work
             rdf:about="">
            <dc:format>image/svg+xml</dc:format>
            <dc:type rdf:resource="http://purl.org/dc/dcmitype/StillImage"/>
            <dc:title></dc:title>
         </cc:Work>
      </rdf:RDF>
   </metadata>
   <g
       id="layer_Paper"
       style="fill:#000000;fill-opacity:1;stroke:#000000;stroke-opacity:1;fill-rule:nonzero;stroke-linecap:square;stroke-linejoin:miter;stroke-width:1;stroke-miterlimit:10">
      <polyline
          style="fill:none"
          id="4398AEDA"
          points="21.460750487,0.501839543498 20.9464275704,140.03959996 22.0260918156,156.819848859 23.824031737,166.255745794 27.675594237,175.39506871 32.952937987,182.354704127 38.4503338204,188.622933294 44.2133546537,194.939339544 51.327937987,199.22709996 59.7133546537,203.440641627 68.9477296537,206.20756871 77.2654379867,207.655485377 83.7778077787,208.266813502 95.1026775707,206.600797877 101.856717195,205.607202741 113.016740071,201.092985377 123.145646321,194.279183294 131.008927571,186.392464544 137.007625487,179.61772496 141.183406737,169.704964544 146.562964029,145.481657252 147.642628274,162.261906151 149.440568196,171.697803085 153.292130696,180.837126002 158.569474446,187.796761419 164.066870279,194.064990585 169.829891112,200.381396835 176.944474446,204.669157252 185.329891112,208.882698919 194.564266112,211.649626002 202.881974446,213.097542669 209.394344237,213.708870794 220.719214029,212.042855169 227.473253653,211.049260032 238.633276529,206.535042669 248.762182779,199.721240585 256.625464029,191.834521835 262.624161946,185.059782252 266.799943196,175.147021835 272.179500487,150.923714544 273.259164733,167.703963443 275.057104654,177.139860377 278.908667154,186.279183294 284.186010904,193.23881871 289.683406737,199.507047877 295.446427571,205.823454127 302.561010904,210.111214544 310.946427571,214.32475621 320.180802571,217.091683294 328.498510904,218.53959996 335.010880696,219.150928085 346.335750487,217.48491246 353.089790111,216.491317324 364.249812987,211.97709996 374.378719237,205.163297877 382.242000487,197.276579127 388.240698404,190.501839544 392.416479654,180.589079127 397.796036946,156.365771835 398.875701191,173.146020734 400.673641112,182.581917669 404.525203612,191.721240585 409.802547362,198.680876002 415.299943196,204.949105169 421.062964029,211.265511419 428.177547362,215.553271835 436.562964029,219.766813502 445.797339029,222.533740585 454.115047362,223.981657252 460.627417154,224.592985377 471.952286946,222.926969752 478.70632657,221.933374616 489.866349446,217.419157252 499.995255696,210.605355169 507.858536946,202.718636419 513.857234862,195.943896835 518.033016112,186.031136419 523.412573404,161.807829127 514.518042154,344.288297877 509.138484862,368.511605169 504.962703612,378.424365585 498.964005696,385.199105169 491.100724446,393.085823919 480.971818196,399.899626002 469.81179532,404.413843366 463.057755696,405.407438502 451.732885904,407.073454127 445.220516112,406.462126002 436.902807779,405.014209335 427.668432779,402.247282252 419.283016112,398.033740585 412.168432779,393.745980169 406.405411946,387.429573919 400.908016112,381.161344752 395.630672362,374.201709335 391.779109862,365.062386419 389.981169941,355.626489484 388.901505696,338.846240585 383.521948404,363.069547877 379.346167154,372.982308294 373.347469237,379.757047877 365.484187987,387.643766627 355.355281737,394.45756871 344.195258861,398.971786074 337.441219237,399.96538121 326.116349446,401.631396835 319.603979654,401.02006871 311.286271321,399.572152044 302.051896321,396.80522496 293.666479654,392.591683294 286.551896321,388.303922877 280.788875487,381.987516627 275.291479654,375.71928746 270.014135904,368.759652044 266.162573404,359.620329127 264.364633483,350.184432193 263.284969237,333.404183294 257.905411946,357.627490585 253.729630696,367.540251002 247.730932779,374.314990585 239.867651529,382.201709335 229.738745279,389.015511419 218.578722403,393.529728782 211.824682779,394.523323919 200.499812987,396.189339544 193.987443196,395.578011419 185.669734862,394.130094752 176.435359862,391.363167669 168.049943196,387.149626002 160.935359862,382.861865585 155.172339029,376.545459335 149.674943196,370.277230169 144.397599446,363.317594752 140.546036946,354.178271835 138.748097024,344.742374901 137.668432779,327.962126002 132.288875487,352.185433294 128.113094237,362.09819371 122.114396321,368.872933294 114.251115071,376.759652044 104.122208821,383.573454127 92.9621859447,388.087671491 86.2081463207,389.081266627 74.8832765287,390.747282252 68.3709067367,390.135954127 60.0531984037,388.68803746 50.8188234037,385.921110377 42.433406737,381.70756871 35.3188234037,377.419808294 29.5558025704,371.103402044 24.058406737,364.835172877 18.781062987,357.87553746 14.929500487,348.736214544 13.1315605656,339.300317609 8.890965459469,322.137260616 5.310350993669,508.103133951 5.010722387275,518.327391622 4.858123065595,526.675317609 6.656062986995,536.111214544 10.507625487,545.25053746 15.784969237,552.210172877 21.2823650704,558.478402044 27.0453859037,564.794808294 34.159969237,569.08256871 42.5453859037,573.296110377 51.7797609037,576.06303746 60.0974692367,577.510954127 66.6098390287,578.122282252 77.9347088207,576.456266627 84.6887484447,575.462671491 95.8487713207,570.948454127 105.977677571,564.134652044 113.840958821,556.247933294 119.839656737,549.47319371 124.015437987,539.560433294 128.376571428,513.457526465 130.474659524,532.117374901 132.272599446,541.553271835 136.124161946,550.692594752 141.401505696,557.652230169 146.898901529,563.920459335 152.661922362,570.236865585 159.776505696,574.524626002 168.161922362,578.738167669 177.396297362,581.505094752 185.714005696,582.953011419 192.226375487,583.564339544 203.551245279,581.898323919 210.305284903,580.904728782 221.465307779,576.390511419 231.594214029,569.576709335 239.457495279,561.689990585 245.456193196,554.915251002 249.631974446,545.002490585 255.011531737,520.779183294 256.091195983,537.559432193 257.889135904,546.995329127 261.740698404,556.134652044 267.018042154,563.09428746 272.515437987,569.362516627 278.278458821,575.678922877 285.393042154,579.966683294 293.778458821,584.18022496 303.012833821,586.947152044 311.330542154,588.39506871 317.842911946,589.006396835 329.167781737,587.34038121 335.921821361,586.346786074 347.081844237,581.83256871 357.210750487,575.018766627 365.074031737,567.132047877 371.072729654,560.357308294 375.248510904,550.444547877 380.628068196,526.221240585 381.707732441,543.001489484 383.505672362,552.437386419 387.357234862,561.576709335 392.634578612,568.536344752 398.131974446,574.804573919 403.894995279,581.120980169 411.009578612,585.408740585 419.394995279,589.622282252 428.629370279,592.389209335 436.947078612,593.837126002 443.459448404,594.448454127 454.784318196,592.782438502 461.53835782,591.788843366 472.698380696,587.274626002 482.827286946,580.460823919 490.690568196,572.574105169 496.689266112,565.799365585 500.865047362,555.886605169 506.244604654,531.663297877"/>
   </g>
</svg>
