<?xml version="1.0" encoding="UTF-8"?>
<!-- Created with EazyDraw for Mac ( http://www.eazydraw.com/ ) -->

<svg version="1.1" xmlns:dc="http://purl.org/dc/elements/1.1/" xmlns:cc="http://creativecommons.org/ns#" xmlns:rdf="http://www.w3.org/1999/02/22-rdf-syntax-ns#" xmlns:svg="http://www.w3.org/2000/svg" xmlns:xlink="http://www.w3.org/1999/xlink" xmlns="http://www.w3.org/2000/svg" width="459.562461733" height="532.049481278" viewBox="0, 0, 459.562461733, 532.049481278" preserveAspectRatio="none">
<defs/>
<metadata>
<rdf:RDF>
<cc:Work rdf:about="">
<dc:format>image/svg+xml</dc:format>
<dc:type rdf:resource="http://purl.org/dc/dcmitype/StillImage"/>
<dc:title></dc:title>
</cc:Work>
</rdf:RDF>
</metadata>
<g style="fill:#000000;fill-opacity:1;stroke:#000000;stroke-opacity:1;fill-rule:nonzero;stroke-linecap:square;stroke-linejoin:miter;stroke-width:1;stroke-miterlimit:10">
<polyline style="fill:none" points="456.948963765,10.0281141741 456.550526265,494.043739174 448.012177398,518.623476866 432.7782845,530.512523635 400.54933053,530.512523635 385.315437632,518.623476866 378.905744628,506.632509436 376.899159077,494.158973549 379.244862202,165.143348549 366.679432515,134.824989174 339.480213765,125.378700112 312.343495015,134.149207924 302.761463765,152.629676674 300.273182515,166.301551674 296.475330952,495.143348549 285.347401265,521.582801674 256.710682515,528.727402678 226.816151265,526.352332924 161.558338765,497.758582924 105.940464652,452.902177504 62.438084982,394.451977029 43.8513075153,356.535926674 23.2419325153,293.684364174 10.2966200153,225.938270424 4.566151265267,145.414832924 11.742556165,97.7941832511 36.6285356348,54.8953344931 69.6091200153,22.6335829241 104.327870015,6.578895424056 163.687641232,2.914214172256 209.522020959,16.4075012421 250.506796533,48.9090597091 276.147798117,92.5621470531 283.52291244,143.46393558 274.773182515,184.645301674 240.325908715,231.096829353 203.817915854,253.388358277 152.277088765,263.121864174 107.800526265,249.324989174 73.1224341243,223.821218469 54.8122450153,192.367957924 41.6794325153,154.231239174 47.5724578764,118.844774849 62.1247450153,83.7234266741 91.4880262653,60.1062391741 136.796620015,40.0281141741 175.551479477,46.1605740101 214.323651349,68.5004326171 234.628651265,96.7195204241 240.964588765,145.949989174 222.492461843,192.835514863 197.933338765,212.133582924 164.972401265,220.164832924 136.799578531,218.539952396 112.253970901,206.115966015 96.8591200153,189.403114174 84.8317762653,159.992957924 86.1081842033,128.778958974 94.7903570433,109.95984476 113.093495015,93.4187391741 139.456776265,81.5437391741 176.952832949,89.6461907381 197.937245015,115.563270424 202.094457197,148.401462712 190.198963765,169.024207924 164.820057515,181.258582924 143.406263742,178.964642181 121.761463765,156.930457924 125.021369208,136.571012271 131.964588765,125.782020424 154.076980922,122.032506081 178.282574339,122.991922328"/>
</g>
</svg>
