<?xml version="1.0" encoding="UTF-8"?>
<!-- Created with EazyDraw for Mac ( http://www.eazydraw.com/ ) -->

<svg
    version="1.1"
    xmlns:dc="http://purl.org/dc/elements/1.1/"
    xmlns:cc="http://creativecommons.org/ns#"
    xmlns:rdf="http://www.w3.org/1999/02/22-rdf-syntax-ns#"
    xmlns:svg="http://www.w3.org/2000/svg"
    xmlns:xlink="http://www.w3.org/1999/xlink"
    xmlns="http://www.w3.org/2000/svg"
    width="420.572377556"
    height="620.273646691"
    viewBox="0, 0, 420.572377556, 620.273646691"
    preserveAspectRatio="none"
    id="svg2">
   <defs
       id="defs_60A23E9C"/>
   <metadata
       id="metadata7">
      <rdf:RDF>
         <cc:Work
             rdf:about="">
            <dc:format>image/svg+xml</dc:format>
            <dc:type rdf:resource="http://purl.org/dc/dcmitype/StillImage"/>
            <dc:title></dc:title>
         </cc:Work>
      </rdf:RDF>
   </metadata>
   <g
       id="layer_Paper"
       style="fill:#000000;fill-opacity:1;stroke:#000000;stroke-opacity:1;fill-rule:nonzero;stroke-linecap:square;stroke-linejoin:miter;stroke-width:1;stroke-miterlimit:10">
      <polyline
          style="fill:none"
          id="BD0D5A9C"
          points="0.904545931623,0.50110855132 0.711541265123,87.456937538 48.753829786,87.9516293847 53.1402088977,95.4761163393 51.2652230148,606.064259593 44.4815842348,611.154571719 47.2264990856,619.179188539 55.7065885397,619.048362354 58.2026571991,610.942890505 51.2652230148,606.064259593 51.8019410548,569.259453387 54.9440040958,565.054000853 63.7812607008,564.870276538 69.5431892758,557.360835025 62.9967531808,549.372490986 54.8756281018,549.192596587 52.3410822408,546.007194504 51.5100446738,382.609467006 55.1724859218,378.184811856 64.0097425268,378.001087542 69.7716711018,370.491646029 63.2252350078,362.503301989 55.1041099278,362.323407591 52.5695640678,359.138005508 52.0934366128,183.823328138 55.2354996528,179.617875604 64.0727562578,179.434151289 69.8346848328,171.924709776 63.2882487388,163.936365737 55.1671236588,163.756471338 52.6325777988,160.571069255 53.1402088977,95.4761163393 58.1037646815,87.8871762594 153.391531685,89.0551450104 157.777910797,96.5796319649 156.729422309,606.142384593 149.945783529,611.232696719 152.69069838,619.257313539 161.170787834,619.126487354 163.666856493,611.021015505 156.729422309,606.142384593 157.26614035,569.337578387 160.40820339,565.132125853 169.245459995,564.948401538 175.00738857,557.438960025 168.460952476,549.450615986 160.339827396,549.270721587 157.805281536,546.085319504 156.974243968,382.687592006 160.636685217,378.262936856 169.473941822,378.079212542 175.235870396,370.569771029 168.689434302,362.581426989 160.568309223,362.401532591 158.033763362,359.216130508 157.557635907,183.901453138 160.699698948,179.696000604 169.536955553,179.512276289 175.298884127,172.002834776 168.752448033,164.014490737 160.631322954,163.834596338 158.096777093,160.649194255 157.777910797,96.5796319649 162.74146658,88.990691885 258.176328545,88.6518170362 262.562707657,96.1763039907 262.193621604,606.220509593 255.409982824,611.310821719 258.154897675,619.335438539 266.634987129,619.204612354 269.131055788,611.099140505 262.193621604,606.220509593 262.730339644,569.415703387 265.872402685,565.210250853 274.70965929,565.026526538 280.471587865,557.517085025 273.92515177,549.528740986 265.804026691,549.348846587 263.26948083,546.163444504 262.438443263,382.765717006 266.100884511,378.341061856 274.938141116,378.157337542 280.700069691,370.647896029 274.153633597,362.659551989 266.032508517,362.479657591 263.497962657,359.294255508 263.021835202,183.979578138 266.163898242,179.774125604 275.001154847,179.590401289 280.763083422,172.080959776 274.216647328,164.092615737 266.095522248,163.912721338 263.560976388,160.727319255 262.562707657,96.1763039907 267.526263441,88.5873639108 363.442055921,89.3625916951 367.828435033,96.8870786497 367.657820899,606.298634593 360.874182119,611.388946719 363.61909697,619.413563539 372.099186424,619.282737354 374.595255083,611.177265505 367.657820899,606.298634593 368.194538939,569.493828387 371.33660198,565.288375853 380.173858585,565.104651538 385.935787159,557.595210025 379.389351065,549.606865986 371.268225985,549.426971587 368.733680125,546.241569504 367.902642558,382.843842006 371.565083806,378.419186856 380.402340411,378.235462542 386.164268986,370.726021029 379.617832891,362.737676989 371.496707812,362.557782591 368.962161951,359.372380508 368.486034496,184.057703138 371.628097537,179.852250604 380.465354142,179.668526289 386.227282717,172.159084776 379.680846622,164.170740737 371.559721543,163.990846338 369.025175682,160.805444255 367.828435033,96.8870786497 372.791990817,89.2981385698 420.06081569,88.19186376"/>
   </g>
</svg>
