<?xml version="1.0" encoding="UTF-8"?>
<!-- Created with EazyDraw for Mac ( http://www.eazydraw.com/ ) -->

<svg
    version="1.1"
    xmlns:dc="http://purl.org/dc/elements/1.1/"
    xmlns:cc="http://creativecommons.org/ns#"
    xmlns:rdf="http://www.w3.org/1999/02/22-rdf-syntax-ns#"
    xmlns:svg="http://www.w3.org/2000/svg"
    xmlns:xlink="http://www.w3.org/1999/xlink"
    xmlns="http://www.w3.org/2000/svg"
    width="387.669128974"
    height="720.298251408"
    viewBox="0, 0, 387.669128974, 720.298251408"
    preserveAspectRatio="none"
    id="svg2">
   <defs
       id="defs_F25EBBFC"/>
   <metadata
       id="metadata7">
      <rdf:RDF>
         <cc:Work
             rdf:about="">
            <dc:format>image/svg+xml</dc:format>
            <dc:type rdf:resource="http://purl.org/dc/dcmitype/StillImage"/>
            <dc:title></dc:title>
         </cc:Work>
      </rdf:RDF>
   </metadata>
   <g
       id="layer_Paper"
       style="fill:#000000;fill-opacity:1;stroke:#000000;stroke-opacity:1;fill-rule:nonzero;stroke-linecap:square;stroke-linejoin:miter;stroke-width:1;stroke-miterlimit:10">
      <polyline
          style="fill:none"
          id="1852C3FC"
          points="97.4038721631,0.501582272117 97.8443018506,139.456660397 86.7984034131,171.071894772 65.8062159131,180.935176022 36.3140284131,179.950801022 18.7319971631,167.587519772 9.275942475578,139.456660397 12.5210596631,119.458613522 29.8374659131,102.165644772 53.5601221631,95.1724807096 97.7468427826,108.708432491 165.747622163,128.380488522 241.958559663,151.669551022 299.571811568,170.534542408 344.280434663,184.230371335 369.403872163,175.130488522 385.083559663,155.591426022 385.978090913,121.583613522 368.978090913,103.482051022 344.280434663,95.6620119596 317.001528413,103.267207272 302.446840913,122.001582272 299.996254976,139.946191647 297.429848726,324.899316647 306.825747163,348.716426022 325.005434663,362.618769772 353.540590913,367.220332272 375.935122163,356.775019772 385.998208101,324.899316647 374.700747163,292.521113522 341.714028413,280.61513696 317.138713648,288.060267692 94.6102153268,355.479580021 50.9937159131,368.693965085 19.6616846631,354.966426022 6.709536225578,324.409785397 17.8726221631,295.814082272 50.9937159131,280.12560571 77.2163721631,289.724238522 95.2778956006,324.409785397 91.4224268506,503.819941647 84.3530909131,529.357051022 61.5054346631,545.466426022 33.4155909131,547.790644772 8.841372163078,530.208613522 2.854067475578,503.819941647 14.2163721631,470.997676022 47.1382471631,459.53576196 337.858559663,548.593652585 365.915590913,540.224238522 382.142739351,504.309472897 372.575747163,474.825801022 337.858559663,460.02529321 308.298403413,468.638301022 297.255434663,484.681269772 293.574379976,504.309472897 292.609536226,672.391504147 299.521059663,695.536738522 317.103090913,712.517207272 336.893715913,716.675683835 364.146059663,707.946894772 377.329653413,691.712519772 381.177895601,672.391504147 373.067934663,647.927363522 358.032778413,635.942988522 336.893715913,628.10732446 46.1734034131,627.61779321 23.1187159131,633.728144772 7.884340913078,651.376582272 1.889223725578,671.901972897 9.208559663078,697.982051022 28.5054346631,711.841426022 46.1734034131,716.186152585 217.345278413,715.716426022 240.583559663,715.415644772"/>
   </g>
</svg>
