<svg xmlns="http://www.w3.org/2000/svg" xmlns:xlink="http://www.w3.org/1999/xlink" width="1390px" height="900px" viewBox="0 0 1390 900" preserveAspectRatio="xMidYMid meet" ><rect id="svgEditorBackground" x="0" y="0" width="1390" height="900" style="fill: none; stroke: none;"/><path d="M290,67l0,1l-1,1l-1,1l0,1l-1,2l-1,1l0,1l0,1l-1,0l0,2l0,1l0,1l-1,0l0,1l0,1l0,1l0,2l0,2l0,1l0,1l0,2l0,1l0,2l0,1l0,2l0,1l0,2l0,2l0,2l0,1l0,3l0,2l0,2l0,3l0,2l0,2l0,3l0,8l0,5l0,5l0,6l0,8l0,6l0,5l0,2l0,5l0,2l0,3l0,2l-1,5l0,2l-1,3l0,1l-2,5l0,4l-1,4l0,3l-1,5l-1,7l-1,8l0,1l0,2l-1,1l0,2l0,1l0,3l0,4l-1,2l0,4l-1,4l-1,2l0,5l0,1l0,4l-1,6l-1,4l0,4l-2,7l-1,4l0,4l0,4l0,3l0,2l-1,3l-2,7l0,9l0,8l-1,12l0,13l0,18l0,13l0,4l0,4l0,5l0,5l0,7l0,4l0,4l0,6l0,5l0,7l0,6l0,4l0,5l0,9l0,10l0,18l0,11l0,5l1,5l0,6l1,5l1,9l0,9l1,6l2,7l0,3l1,9l0,5l1,5l3,6l1,5l0,1l1,7l0,4l1,5l2,5l0,2l1,2l3,4l0,1l1,2l0,2l1,1l1,1l0,1l3,3l1,1l2,1l4,3l4,3l3,2l3,2l3,2l1,1l2,1l4,3l5,5l5,3l2,1l5,3l8,5l3,3l5,3l24,26l8,6l8,3l7,5l5,3l4,3l5,3l5,2l4,3l7,2l5,3l3,1l7,3l5,2l4,1l5,2l5,1l5,1l9,0l10,0l18,0l14,4l7,1l6,0l9,0l9,0l6,0l5,0l5,0l5,0l7,0l8,-1l7,-1l9,0l18,-3l6,-2l11,-1l14,-1l20,-4l28,-5l14,-3l20,-2l17,-1l18,-2l14,-3l11,-2l14,-3l11,0l11,-3l11,-1l7,-1l7,-1l11,0l10,-3l13,-1l17,-3l12,-2l6,-1l9,0l5,-1l7,-2l6,-1l14,-5l5,-2l6,-1l7,-2l5,-1l9,-4l10,-4l10,-4l10,-4l6,-7l4,-3l3,-4l6,-7l4,-5l3,-5l3,-4l3,-5l1,-3l5,-11l1,-7l4,-11l5,-18l2,-10l3,-11l1,-5l1,-6l0,-7l2,-11l0,-7l0,-7l2,-6l1,-12l1,-9l1,-5l0,-7l0,-6l0,-14l0,-7l0,-6l0,-12l0,-17l0,-7l0,-5l0,-7l0,-6l-3,-9l-1,-5l-2,-5l-4,-6l-2,-5l-5,-14l-3,-5l-2,-6l-8,-13l-8,-14l-5,-8l-3,-5l-3,-5l-3,-7l-3,-4l-6,-10l-4,-6l-7,-10l-5,-5l-4,-6l-3,-5l-4,-5l-9,-9l-6,-8l-8,-8l-10,-10l-4,-4l-4,-3l-7,-5l-4,-4l-7,-7l-4,-3l-4,-3l-6,-5l-4,-4l-6,-4l-6,-5l-3,-1l-9,-7l-8,-6l-9,-6l-2,-1l-4,-3l-4,-1l-4,-3l-5,-2l-4,-3l-5,-2l-5,-3l-5,-2l-8,-3l-6,-4l-4,-1l-2,0l-6,-4l-6,-2l-5,-3l-5,-1l-2,-1l-2,-1l-5,-1l-6,-2l-1,0l-3,-1l-3,-1l-4,-1l-2,-1l-3,0l-5,-1l-3,-1l-3,-1l-7,0l-5,-1l-6,-1l-7,0l-14,-1l-8,0l-12,0l-6,0l-7,0l-11,0l-5,0l-2,0l-3,0l-1,0l-1,0l-4,0l-1,0l-5,0l-4,0l-5,0l-5,1l-5,0l-3,1l-7,0l-5,1l-11,2l-13,3l-14,1l-9,2l-4,1l-5,0l-3,1l-2,0l-3,1l-5,0l-2,1l-1,0l-3,1l-4,1l-1,1l-6,2l-7,2l-3,1l-10,5l-3,2l-4,3l-4,3l-1,1l-2,1l-1,1l-1,1l-3,3l-2,2l-1,1l-3,4l-4,5l-1,2l-1,3l-6,6l-2,4l-3,3l-1,1l-1,2l-1,2l-1,2l-1,1l-3,4l-1,1l-1,2l-3,3l-3,5l-1,2l-1,3l-4,6l-2,4l-1,3l-3,4l-5,8l0,2l-3,2l-2,5l-2,5l-3,5l-4,6l-5,8l0,2l-2,2l-7,10l-6,10l-1,3l-2,2l-1,4l-3,6l-1,3l-3,5l-1,4l-1,4l-4,6l-1,5l-2,5l-1,3l-1,2l0,1l-2,7l-1,5l-1,4l-2,4l0,3l-1,4l0,4l-1,5l0,5l-1,7l0,11l0,6l0,10l0,5l0,6l0,3l0,5l0,8l0,4l0,6l1,7l2,5l1,5l2,6l2,5l2,5l1,5l5,9l3,7l1,5l4,11l5,8l4,8l1,3l5,10l5,6l3,4l1,1l3,4l5,6l1,2l1,1l4,4l1,1l4,3l7,9l4,3l4,4l8,7l11,11l8,5l7,5l3,2l3,3l4,2l2,1l5,2l3,1l6,3l5,1l12,3l3,1l9,2l13,-2l14,-1l15,-5l20,-4l7,-4l9,-2l9,-6l10,-6l9,-2l10,-6l6,-3l9,-4l10,-7l15,-10l11,-6l14,-7l22,-13l22,-14l14,-6l10,-6l7,-5l8,-5l5,-2l4,-3l4,-2l5,-3l4,-3l10,-8l13,-9l8,-5l2,-2l9,-9l5,-7l6,-7l5,-7l1,-2l2,-4l1,-3l1,-1l4,-13l0,-5l2,-5l0,-1l0,-4l0,-3l0,-2l-1,-4l0,-1l0,-2l-1,0l-3,-4l-1,-3l-3,-3l-2,0l-2,-1l-6,-2l-3,-1l-6,-1l-2,0l-3,-2l-4,0l-3,0l-2,0l-1,0l-2,0l-1,0l-1,0l-2,0l-2,0l-1,0l-2,0l-3,1l-1,0l-2,1l-3,2l-4,1l-4,2l-2,2l-4,1l-1,1l-2,1l-2,0l-1,1l-2,1l-3,2l-1,1l-2,1l-2,1l-3,1l-2,2l-3,2l-2,2l-1,0l-1,1l0,1l-2,1l-1,0l-1,1l0,1l-3,2l-2,1l-5,3l-3,2l-1,1l-4,2l-1,0l-1,1l-3,2l-1,1l-2,0l-1,1l-1,0l-3,3l-6,2l-1,0l-3,1l-4,3l-5,3l-4,2l-4,2l-2,0l-3,1l-2,1l-5,2l-4,0l-3,1l-3,1l-7,2l-1,1l-5,1l-2,0l-1,0l-3,1l-5,2l-8,2l-2,1l-3,0l-1,1l-4,0l-4,2l-3,1l-1,0l-5,1l-4,1l-3,0l-2,0l-4,1l-3,0l-8,0l-8,0l-8,0l-3,0l-7,-2l-3,-1l-5,-1l-5,-2l-5,-1l-5,-2l-8,-3l-6,-1l-5,-4l-5,-4l-3,-2l-2,-3l-2,-1l-1,0l-1,-2l-1,-1l-1,-1l-1,-2l-1,-2l0,-1l-1,-5l-1,-3l-1,-4l0,-6l-1,-5l0,-3l0,-2l-1,-2l0,-1l0,-5l0,-2l0,-4l0,-4l0,-4l0,-4l1,-6l3,-7l0,-4l4,-7l2,-4l1,-3l2,-3l2,-5l1,-1l1,-1l3,-4l2,-2l3,-3l2,-3l4,-2l5,-4l7,-4l10,-4l7,-3l6,-1l28,-11l11,-2l14,-5l7,-2l14,-3l11,-3l9,-3l7,-3l9,-2l8,-3l2,0l5,0l7,0l10,-1l9,-2l5,-1l5,-1l2,0l3,0l2,0l3,0l10,0l3,0l5,0l16,0l11,0l11,2l10,1l5,1l5,1l3,1l3,1l5,1l3,1l5,2l7,1l3,1l5,2l4,1l2,1l2,1l5,5l7,4l2,1l3,3l1,1l2,2l1,1l2,2l1,2l2,4l0,1l4,6l1,1l0,2l1,3l3,4l2,2l1,3l1,1l0,1l1,3l1,0l0,1l0,2l1,2l0,1l2,6l0,4l1,5l3,7l0,10l0,11l0,5l0,11l1,7l0,5l0,5l0,4l0,5l0,12l0,6l0,3l0,2l0,8l0,4l0,6l0,4l0,2l0,2l0,3l0,1l0,2l0,1l0,3l0,1l-1,3l-2,5l-2,6l-5,8l-2,7l-1,1l-2,4l-1,2l-2,3l-1,3l-3,4l-5,5l-4,6l-2,4l-2,4l-4,5l-3,5l-4,3l-7,8l-5,5l-4,4l-4,4l-3,2l-6,4l-3,2l-3,3l-5,3l-6,4l-3,2l-1,1l-6,4l-1,1l-3,3l-4,4l-8,4l-4,4l-5,3l0,1l-4,1l-5,5l-6,4l-2,1l-5,3l-3,1l-4,3l-3,2l-1,1l-8,3l-8,3l-7,3l-8,4l-3,1l-7,3l-3,1l-5,2l-4,3l-12,4l-5,1l-6,2l-10,3l-13,4l-10,2l-10,3l-8,2l-5,2l-2,0l-3,1l-3,1l-3,0l-5,3l-2,1l-7,1l-5,2l-4,0l-2,0l-6,1l-9,1l-6,2l-2,0l-4,0l-3,0l-1,1l-5,0l-3,0l-3,1l-8,1l-7,1l-3,0l-12,0l-9,0l-8,0l-10,0l-5,0l-12,-2l-2,0l-6,-1l-4,-1l-5,0l-4,0l-4,-1l-4,-1l-5,0l-2,-1l-9,-3l-7,-2l-2,0l-8,-3l-5,-2l-5,-3l-6,-3l-1,-1l-5,-3l-2,-1l-2,-2l-4,-3l-2,0l-5,-3l-1,-1l-3,-1l-4,-3l-4,-3l-4,-3l-2,-2l-6,-6l-5,-4l-2,-1l-2,-3l-4,-3l-4,-3l-3,-5l-1,-1l-3,-6l-3,-4l-2,-2l-3,-5l-4,-7l-3,-7l-4,-10l-4,-8l-1,-3l-2,-4l0,-2l-1,-4l-1,-5l-2,-3l-2,-7l-1,-8l-3,-5l0,-5l-2,-7l-4,-11l-1,-4l-3,-11l-1,-7l0,-5l-1,-6l-2,-7l0,-3l-1,-9l-1,-8l-1,-9l0,-5l0,-7l0,-10l0,-9l0,-8l0,-11l0,-5l0,-2l0,-6l0,-5l0,-5l0,-2l2,-15l2,-8l3,-6l0,-7l2,-8l3,-6l2,-10l0,-2l1,-3l1,-7l0,-3l0,-4l1,-3l1,-5l1,-1l2,-9l3,-8l1,-3l0,-3l3,-7l3,-10l3,-10l1,-2l0,-1l1,-3l2,-5l0,-2l1,-5l1,-2l3,-10l1,-4l0,-5l4,-14l1,-12l1,-13l3,-14l1,-9l0,-5l1,-5l0,-3l1,-2l0,-5l0,-3l1,-2l1,-4l0,-4l2,-9l0,-2l1,-4l0,-1l0,-2l1,-1" stroke="black" id="e1_freepath" style="fill: none; stroke-width: 1px;"/></svg>