<svg xmlns="http://www.w3.org/2000/svg" xmlns:xlink="http://www.w3.org/1999/xlink" width="1390px" height="900px" viewBox="0 0 1390 900" preserveAspectRatio="xMidYMid meet" ><rect id="svgEditorBackground" x="0" y="0" width="1390" height="900" style="fill: none; stroke: none;"/><path d="M568,66l-1,1l0,1l0,1l0,1l0,2l0,1l0,2l0,1l0,1l0,1l0,2l0,3l0,1l0,1l0,3l0,1l0,2l0,1l0,2l0,1l0,1l0,2l1,1l0,1l0,1l0,1l0,2l0,1l0,1l0,1l1,2l0,1l0,2l0,1l0,2l0,1l0,1l0,1l0,1l0,1l0,1l0,1l0,1l0,1l0,1l0,1l0,1l0,1l1,1l0,2l0,1l1,2l0,2l0,1l0,1l0,2l0,2l0,1l1,1l0,1l0,1l1,2l0,2l0,1l0,1l0,1l1,3l0,1l0,1l0,2l0,1l0,1l0,1l0,1l1,2l0,1l0,2l1,2l0,4l0,1l0,2l0,2l0,1l0,1l0,1l0,2l0,1l0,1l0,1l0,1l0,2l0,1l1,1l0,1l0,1l0,1l0,1l0,1l0,1l0,1l0,1l0,1l0,1l0,1l0,1l0,3l-1,1l0,1l0,1l-1,3l0,1l-1,1l-1,2l0,1l0,1l0,1l-1,1l-1,2l0,1l0,2l-1,0l0,1l-1,1l0,1l-1,0l0,1l-1,1l-1,1l0,1l-1,0l0,1l-1,0l0,1l-1,1l0,1l-1,0l-1,1l-1,1l-1,2l0,1l-1,0l0,1l-1,0l-1,1l-1,1l-1,0l0,1l-1,0l0,1l-1,0l-1,1l-1,1l-1,0l-1,1l-1,0l-1,0l-1,0l0,1l-1,0l-1,0l-1,0l-1,0l-1,1l-1,0l-1,0l-1,0l-1,0l-1,0l-1,0l-1,0l-1,0l-1,0l-1,0l-1,0l-1,0l-1,0l-1,0l-1,-1l-2,0l-1,-1l-1,0l-1,0l-1,-1l-1,-1l-1,0l-1,-1l-1,0l-2,-2l-1,-1l-1,0l-1,-1l0,-1l-1,0l-1,-1l-1,-1l0,-1l-1,-1l-1,-1l0,-1l-1,-1l0,-1l0,-1l0,-1l-1,-1l0,-1l0,-1l-1,-1l0,-2l0,-2l-1,-1l0,-1l-1,-1l0,-1l0,-1l0,-1l0,-1l0,-1l-1,0l0,-1l0,-2l0,-1l-1,-2l-1,-2l0,-3l0,-1l0,-1l0,-1l0,-1l0,-1l0,-1l0,-1l0,-1l0,-1l0,-1l0,-1l0,-1l0,-1l1,-1l0,-1l1,0l0,-1l1,-2l1,0l1,-1l1,-1l1,-1l1,0l1,0l1,-1l1,0l1,0l2,0l1,-1l1,0l1,0l1,0l1,0l1,-1l1,0l1,0l1,0l1,0l0,-1l2,0l1,0l2,-1l1,0l1,0l1,0l1,0l1,0l1,0l1,0l1,0l1,0l2,0l1,0l1,0l2,0l3,0l2,0l3,0l1,0l1,0l1,0l1,0l2,0l2,0l1,0l2,0l3,3l1,0l1,0l3,1l2,0l2,1l1,1l1,0l1,0l2,0l1,1l1,0l2,1l1,0l2,1l1,0l2,0l5,3l2,0l3,1l4,0l2,1l2,1l1,0l1,0l1,0l4,1l1,1l2,1l1,0l1,1l1,0l1,0l1,0l2,1l1,0l2,1l2,0l1,1l1,0l1,0l1,1l1,0l1,0l1,0l1,0l1,0l1,1l1,0l2,0l2,0l2,0l1,0l1,1l1,0l2,0l1,0l1,1l1,0l1,0l4,1l2,0l1,0l2,0l2,0l1,0l2,0l2,0l1,1l1,0l1,1l1,0l1,0l1,1l1,0l2,1l1,0l1,1l2,1l1,1l1,0l1,0l2,0l1,0l1,0l1,0l0,1l1,0l1,0l1,1l1,0l2,0l1,0l1,0l2,0l1,0l1,1l1,0l1,0l1,0l1,0l1,0l2,0l1,0l1,0l1,0l1,0l1,0l1,0l2,-1l1,-1l1,0l1,0l1,0l0,-1l1,0l1,-2l1,-1l1,-1l1,-1l0,-1l1,-1l0,-1l1,-1l0,-1l1,-1l0,-1l0,-1l1,-1l0,-1l0,-1l0,-1l1,-2l0,-2l0,-1l0,-2l1,-2l0,-1l0,-1l0,-1l0,-1l0,-2l1,-2l0,-1l0,-1l-1,-1l0,-2l-1,-2l0,-2l-1,-1l0,-1l0,-1l0,-1l-1,0l0,-1l-1,-1l-1,-1l0,-2l-1,0l0,-1l-1,-1l-1,0l0,-1l0,-1l-1,-1l-1,0l0,-1l-2,-1l0,-1l-2,0l-1,-1l0,-1l-1,0l-1,0l0,-1l-1,0l-1,0l0,-1l-1,0l-1,0l-1,-1l-1,0l-2,0l-1,0l-1,0l-1,0l-1,0l-1,0l-1,0l-1,1l-1,0l-1,1l-1,0l-1,1l-1,1l-1,1l-1,1l-1,1l-1,1l0,1l-1,0l0,1l-1,1l-1,0l-1,1l0,1l-1,0l-1,1l-1,1l-1,1l0,1l-1,0l0,1l0,1l-1,0l0,1l-1,1l0,1l-1,1l0,1l-1,1l-1,1l0,1l-1,1l0,1l-1,0l0,1l-1,1l0,1l-1,1l-1,1l0,3l-1,1l-1,1l0,1l0,1l0,2l0,1l-1,1l0,1l-1,1l0,1l0,1l0,1l0,1l0,1l0,1l0,1l0,1l-1,0l0,2l0,1l0,1l0,1l0,1l0,1l-1,1l0,1l0,2l0,1l0,1l0,1l0,1l0,1l0,1l0,1l0,1l0,1l0,1l0,1l0,1l0,1l0,1l0,1l0,1l1,0l0,1l0,1l0,1l0,1l0,1l0,1l0,1l0,1l0,1l1,0l0,1l0,1l1,1l0,1l0,1l0,1l0,1l0,1l0,1l0,1l0,1l1,1l0,1l0,1l0,1l1,2l0,1l0,1l0,1l0,1l0,1l0,1l0,1l0,2l1,1l0,2l0,1l0,1l0,1l0,1l0,1l0,1l0,1l0,1l0,1l0,1l0,3l0,2l0,2l0,3l0,1l0,1l0,1l0,1l0,1l0,1l0,1l0,1l0,1l0,1l0,1l0,1l0,1l1,1l0,1l0,2l0,1l0,2l0,1l0,2l0,1l0,2l0,1l0,2l0,1l0,1l0,3l1,1l0,1l0,1l0,2l0,1l0,1l1,0l0,1l0,1l1,1l0,1l0,1l1,1l1,1l0,1l0,2l1,0l0,1l1,2l1,1l0,1l1,0l0,1l1,0l0,1l1,1l1,1l0,1l1,0l1,0l1,1l1,1l1,1l1,0l1,0l1,1l0,1l1,0l1,0l1,0l1,0l1,1l2,1l2,0l1,0l1,0l1,0l2,0l2,0l1,0l0,-1l1,0l1,0l1,-1l1,0l2,-1l1,-1l1,0l1,0l0,-1l1,-1l1,-1l0,-1l1,-1l0,-1l1,-1l1,0l0,-1l0,-1l1,-1l1,-1l1,-2l1,-1l0,-1l0,-1l1,-1l1,-2l1,-1l0,-2l0,-1l1,-1l0,-1l1,-2l0,-1l0,-1l0,-2l0,-1l0,-1l1,-1l0,-1l0,-1l0,-2l0,-1l0,-1l0,-1l0,-2l0,-1l0,-1l0,-1l0,-1l-1,-1l0,-2l-1,-1l0,-2l-1,0l0,-1l-1,-2l-1,0l0,-1l-1,-1l-1,0l-1,-1l-1,0l-1,-1l-1,-1l-1,0l-1,0l-1,0l-1,-1l-1,-1l-1,0l-1,0l-1,0l-1,0l-2,-1l-2,0l-2,0l-3,0l-1,0l-2,0l-1,0l-2,0l-1,0l-1,0l-1,0l-1,0l-1,0l-1,0l-1,0l-3,1l-1,1l-1,0l-1,0l-2,1l-1,1l-1,0l-1,1l-2,0l-1,1l0,1l-1,0l-1,1l-1,1l-1,0l0,1l-1,1l-1,0l-1,1l0,1l-1,0l0,1l-2,0l-1,1l-1,1l-1,0l-1,1l-1,1l-1,0l-1,1l-1,1l-1,0l-2,2l0,1l-2,1l-1,1l-1,0l-1,1l0,1l-1,1l-1,1l-2,1l-1,1l-2,1l-1,1l-1,1l-3,2l-4,3l-2,2l0,1l-2,1l-1,1l-1,0l-1,1l0,1l-1,2l-1,0l0,1l-2,1l0,1l-3,2l-2,1l-1,0l-3,3l-1,0l0,1l-3,2l-2,1l-1,1l-2,1l-4,1l-1,2l-1,0l-1,0l-1,1l-1,0l0,1l-1,0l-1,0l-1,1l-1,1l-1,0l-2,1l-1,1l-1,1l-1,0l-1,1l-1,0l-1,1l-1,0l0,1l-1,0l-1,0l-1,1l-1,1l-2,0l-1,1l-1,0l-2,1l-1,1l-1,0l-1,1l-2,0l-1,1l-1,0l-2,1l-1,0l-2,1l-1,1l-1,0l-2,1l-2,1l-3,1l-2,1l-1,0l-1,1l-1,0l-2,1l-1,0l-2,1l-1,0l-1,1l-1,0l-1,0l-2,0l-3,1l-2,0l-1,0l-1,0l-1,0l-1,0l-1,0l-1,0l-1,0l-1,0l-2,0l-1,0l-2,0l-3,0l-2,-1l-1,-1l-1,-1l-1,-2l-1,0l-1,-1l-1,0l-1,-1l-1,-1l-1,0l-1,-1l-1,-1l-1,-1l0,-1l-1,-1l-1,-2l-3,-2l0,-1l0,-1l-2,-1l0,-1l-1,-1l-1,-1l-1,-1l0,-1l-2,-2l0,-1l-1,-1l-1,-1l0,-1l-1,0l0,-1l-1,-1l-1,-1l0,-1l-1,-2l-1,0l0,-1l0,-1l-1,-1l0,-1l0,-1l0,-1l0,-1l0,-1l0,-1l0,-1l0,-1l0,-1l0,-1l0,-1l0,-1l0,-1l0,-1l0,-1l0,-1l0,-1l0,-1l1,-2l0,-1l1,-1l0,-1l1,-1l0,-1l0,-1l1,-2l1,-1l1,-1l0,-1l1,0l1,-1l1,0l0,-1l4,-1l2,0l1,-1l1,0l1,-1l1,0l1,0l1,0l1,-1l1,0l1,0l1,0l3,-1l1,0l4,0l3,-1l2,0l1,0l1,0l1,-1l2,0l1,0l1,0l1,0l1,0l2,0l1,0l1,0l1,0l1,0l1,0l3,1l1,0l2,0l1,0l1,1l1,0l1,0l2,0l3,3l3,0l1,1l2,1l0,1l4,3l1,0l5,6l3,4l0,1l1,1l3,1l1,2l1,2l1,2l1,2l1,2l1,1l0,2l1,1l2,4l0,1l1,2l0,2l0,2l0,1l0,2l1,2l0,1l0,1l0,2l0,1l1,2l0,1l0,1l0,1l0,1l0,3l0,4l0,4l0,2l0,2l0,2l0,1l0,1l0,2l0,1l0,2l0,1l0,2l0,1l0,1l1,2l0,2l0,2l0,1l0,1l0,1l0,1l0,1l0,1l0,2l0,2l0,1l0,1l0,2l0,2l0,1l0,3l0,2l0,2l0,1l0,1l0,1l0,1l0,2l0,2l0,3l0,3l0,2l0,1l0,4l0,2l0,2l0,1l0,1l0,2l0,1l0,2l-2,2l0,2l0,2l-2,4l-1,3l0,2l-1,2l0,1l0,1l-1,2l0,1l-1,1l0,1l-1,0l-1,2l-1,2l0,1l0,2l0,1l-1,0l0,1l-1,1l0,1l-1,1l0,1l0,1l-1,0l0,1l-1,1l-1,2l-1,1l-1,1l-1,1l-1,1l-1,0l-1,0l-1,0l-2,2l-1,1l-2,0l-1,0l-1,1l-1,0l-3,1l-1,0l0,1l-1,0l-1,0l-2,1l-1,0l-1,0l-1,0l-1,0l-1,0l-2,0l-1,0l-2,1l-1,0l-2,1l-1,0l-2,0l-1,0l-1,0l-1,0l-2,0l-2,0l-1,0l-3,-1l-1,0l-3,-2l-2,-1l-1,0l-1,-1l-1,0l0,-1l-1,-1l0,-1l-1,-2l-1,0l0,-1l-2,-3l-1,-2l-3,-3l-1,-2l-1,-1l0,-1l0,-1l-1,-2l-1,-2l0,-1l-1,-1l0,-1l0,-2l-1,-2l0,-2l0,-2l0,-2l-1,-2l0,-1l0,-2l0,-1l0,-1l0,-2l0,-1l0,-2l0,-1l0,-2l0,-1l0,-1l1,-1l0,-3l2,-1l0,-1l1,-1l1,0l0,-1l1,0l0,-1l1,0l1,-1l1,-1l1,0l2,0l2,-2l4,-1l5,-1l6,-2l2,0l1,-1l2,0l1,0l2,-1l1,0l3,-2l2,0l1,0l2,-1l1,0l1,0l2,0l2,-1l1,0l1,0l2,0l1,0l1,0l2,0l2,0l1,0l2,1l4,3l1,1l3,0l1,1l1,1l2,0l2,1l3,1l1,1l1,0l1,0l1,1l2,1l1,0l1,1l2,0l2,2l1,0l2,0l1,0l1,0l1,1l2,0l2,1l3,1l2,1l3,2l1,0l3,1l1,0l3,1l6,2l4,1l2,1l4,2l1,0l1,0l3,0l1,1l2,0l3,1l0,1l2,0l2,1l1,0l1,0l1,1l1,0l2,1l2,1l1,0l1,0l1,0l3,1l1,0l1,1l1,0l2,0l2,1l1,0l1,0l1,0l1,0l1,0l1,0l1,1l1,0l1,0l2,0l1,1l1,0l2,0l1,0l2,0l1,0l1,0l1,0l1,1l2,0l2,0l1,0l2,0l1,0l1,0l3,2l1,0l2,0l1,0l1,0l3,0l1,0l1,0l2,0l3,0l1,0l1,0l2,0l1,0l1,0l1,0l1,0l1,0l1,0l2,0l1,0l1,0l1,0l1,-1l1,0l1,0l1,0l2,-2l1,0l2,0l1,-1l2,-1l1,-1l1,-2l1,-1l0,-2l1,-1l0,-1l1,-1l0,-2l1,-1l0,-1l0,-1l1,-2l0,-5l1,-2l0,-3l0,-3l0,-2l0,-2l0,-1l0,-4l0,-2l0,-1l0,-2l0,-2l0,-3l0,-2l0,-1l0,-2l0,-1l0,-1l0,-2l-1,-2l0,-3l-1,0l0,-1l-1,-2l-1,-2l-1,-1l-1,-2l-1,-2l0,-1l-1,-1l-1,-1l-1,0l-3,0l-5,-2l-4,0l-2,0l-1,0l-2,0l-1,0l-2,0l-1,0l-1,0l-1,0l-1,1l-1,0l-1,0l-1,0l-3,1l-5,2l-6,1l-2,1l-1,0l-1,1l-1,0l-1,1l-2,1l-1,0l-1,1l-1,0l-1,0l-2,2l-1,1l-1,0l-1,2l0,1l-1,0l0,1l-1,1l0,1l-1,2l-1,2l0,2l-1,1l-1,3l-1,2l0,2l-1,2l0,2l-1,3l-1,1l0,3l0,1l0,1l0,1l0,1l0,1l0,2l-1,2l0,1l0,1l0,1l0,1l0,1l0,1l0,1l0,2l0,1l0,1l0,1l0,1l0,1l0,1l0,1l0,2l0,1l0,1l0,1l0,2l0,1l0,1l0,1l0,1l0,2l0,2l0,1l0,2l0,1l0,2l0,2l0,1l0,1l0,1l0,1l0,1l0,1l0,1l0,1l0,2l0,2l0,1l0,1l0,1l0,1l0,2l0,1l0,1l0,2l0,1l-1,1l0,2l0,1l0,1l0,1l0,1l0,1l0,1l0,1l0,2l0,1l0,2l-1,1l0,2l0,1l0,1l0,1l0,1l0,2l0,1l0,1l0,1l0,2l0,1l0,2l0,2l0,1l0,1l0,1l0,1l0,1l0,1l-1,1l0,2l0,1l0,1l0,1l0,1l0,1l0,2l0,1l0,1l0,1l0,2l0,1l0,2l0,1l0,1l0,1l1,2l0,1l1,2l0,1l1,0l0,1l0,2l0,1l1,1l0,1l1,1l1,1l0,1l0,1l1,1l1,1l0,1l1,1l2,3l0,1l1,1l0,1l1,1l0,1l0,1l1,0l0,1l0,2l2,1l0,1l1,1l1,1l1,0l0,1l1,0l1,0l0,1l1,0l0,1l1,0l2,0l3,0l2,0l1,0l2,-1l1,-1l2,0l1,0l2,0l2,0l1,0l2,0l1,-1l1,0l1,0l1,0l2,-1l2,-1l1,0l2,-1l1,0l1,-1l1,0l0,-1l1,0l1,0l1,-1l0,-1l1,0l0,-1l1,0l0,-1l0,-1l1,-1l0,-1l0,-1l1,0l0,-1l0,-1l0,-1l0,-1l0,-1l0,-2l0,-1l1,-2l0,-1l0,-1l0,-1l0,-1l0,-2l0,-1l0,-1l0,-1l0,-2l0,-3l0,-3l0,-3l0,-1l0,-1l0,-1l0,-1l0,-1l0,-1l0,-1l0,-2l0,-1l0,-1l-1,-1l-2,-3l-1,-2l0,-1l-1,-1l-1,-2l-1,-1l0,-1l-1,-1l-1,-1l0,-1l-1,-1l-2,-1l-1,-1l-1,0l-1,0l-1,0l-2,-1l-1,0l-1,0l-1,0l-2,0l-1,0l-2,0l-2,1l-1,0l-2,0l-1,1l-1,0l-1,0l-1,0l-1,1l-2,0l-1,1l-1,0l-1,0l-2,1l-1,0l-1,0l-1,0l-1,0l-1,0l-1,0l-1,0l-1,0l-2,0l-1,1l-1,0l-1,0l0,1l-1,0l-1,0l-1,0l-1,0l-1,0l-1,0l-1,0l-1,0l-1,0l-2,0l-1,0l-1,0l-1,0l-1,2l-1,0l-1,0l-2,0l-1,0l-1,0l-4,0l-5,0l-8,1l-2,1l-1,0l-2,1l-1,0l-1,0l-1,0l-1,0l-1,0l-1,0l-1,0l-1,0l-2,0l-1,0l-1,1l-1,0l-2,0l-1,1l-1,0l-1,0l-1,0l-1,0l-2,0l-1,0l-1,0l-1,0l-1,0l-1,1l-2,0l-2,0l-1,0l-2,0l-1,0l-3,0l-2,0l-1,0l-1,0l-1,0l-1,0l-1,0l-1,1l-1,0l-1,0l-1,0l-1,0l-1,0l-1,1l-2,0l-1,0l-1,0l-1,1l-1,0l-1,1l-1,0l-1,0l-1,0l-1,0l0,1l-1,0l-1,0l-1,0l-1,1l-1,0l-1,1l-1,0l-1,1l-2,0l-1,0l-1,1l-1,0l-1,0l-1,1l-2,1l-1,0l-2,1l-1,1l-1,0l-1,1l-2,1l-1,1l-1,0l-1,0l0,1l-1,0l0,1l-1,0l-1,0l-1,1l-1,1l-1,0l-3,2l0,1l-2,0l-1,1l-1,0l0,1l-1,0l-1,0l-1,1l0,1l-1,0l-1,1l0,1l-1,0l-1,1l-1,1l0,1l-1,0l0,1l-1,0l0,2l-1,1l0,1l-1,0l0,1l-1,1l-1,1l0,1l-1,1l0,1l0,1l-1,0l0,1l0,1l0,2l-1,1l0,1l0,1l-1,1l0,1l0,1l0,1l0,1l0,1l0,1l-1,1l0,1l0,1l0,1l0,2l0,1l0,1l0,1l0,1l1,1l0,1l1,1l0,1l0,1l1,2l0,1l1,0l0,1l1,0l0,1l1,0l0,1l2,1l0,1l1,0l1,1l1,0l1,1l1,0l0,1l1,0l1,0l1,1l1,1l1,0l1,0l1,0l1,0l0,1l1,0l1,0l2,0l1,1l1,0l1,0l1,0l2,1l1,0l1,0l1,0l1,0l1,0l0,1l1,0l1,0l2,0l1,0l1,0l2,0l1,0l3,0l2,0l1,0l1,0l1,0l1,0l2,0l1,0l1,0l1,-1l1,0l1,0l1,-1l2,0l1,0l3,0l1,0l0,-1l1,0l1,0l1,0l1,0l1,0l1,-1l1,0l1,-1l3,0l4,0l3,-1l2,0l1,0l1,0l1,0l1,0l1,0l2,0l1,1l2,0l0,1l1,0l1,1l1,1l1,1l3,1l1,1l1,0l1,0l0,1l1,0l0,1l1,0l0,1l0,1l0,1l1,1l1,1l0,1l0,1l0,1l1,1l0,2l1,2l0,1l1,0l0,2l0,1l1,1l0,1l0,2l1,1l1,1l0,2l0,1l1,1l1,2l0,1l0,1l1,1l1,4l0,1l0,1l0,1l0,1l0,1l1,3l0,1l0,1l0,1l0,1l0,1l0,1l0,1l0,1l-1,1l0,1l0,1l0,1l0,-1l0,-1l1,-1l0,-1" stroke="black" id="e4_freepath" style="fill: none; stroke-width: 1px;"/></svg>