<svg xmlns="http://www.w3.org/2000/svg" xmlns:xlink="http://www.w3.org/1999/xlink" width="1420px" height="730px" viewBox="0 0 1420 730" preserveAspectRatio="xMidYMid meet" ><rect id="svgEditorBackground" x="0" y="0" width="1420" height="730" style="fill: none; stroke: none;"/><path d="M669,25l1,0l1,0l2,0l1,0l2,0l1,0l2,0l3,1l9,0l1,1l5,0l3,1l3,0l4,1l1,0l2,1l1,0l2,0l2,2l1,0l1,0l3,0l1,1l2,0l1,0l5,3l1,0l1,0l1,1l2,1l2,0l2,1l1,0l2,0l1,1l2,2l1,1l1,0l4,1l1,1l1,0l1,2l2,1l1,2l3,3l1,0l4,2l3,0l1,1l1,0l2,2l0,1l1,1l1,2l1,2l1,1l1,1l1,0l2,3l1,1l1,1l2,2l1,1l3,5l-18,23l1,1l-2,5l2,3l1,2l4,3l0,1l0,1l1,2l1,1l2,5l1,1l1,2l1,2l1,1l1,2l1,1l1,2l0,1l3,4l0,3l1,1l2,5l1,2l0,1l1,1l0,3l2,2l1,5l0,3l0,2l2,2l1,4l0,3l0,1l0,3l0,2l0,1l0,4l0,1l0,2l0,1l0,3l0,2l0,2l0,3l0,4l0,3l0,3l0,2l0,3l-1,4l0,1l0,2l0,1l-1,2l0,1l-1,3l0,1l-2,5l0,2l-1,1l-2,3l-2,3l-1,1l0,3l-1,5l-1,2l-1,2l0,3l0,3l-1,2l-1,2l-2,4l-1,2l-3,3l0,2l-2,4l-1,2l-2,4l-3,4l-1,1l-4,6l-1,4l-2,3l-3,3l-3,4l-1,1l-4,6l-1,0l-2,3l-4,4l-1,1l-3,2l-2,3l-4,3l-4,4l-8,9l-4,3l-4,3l-5,5l-7,6l-4,4l-3,3l-4,3l-10,5l-8,5l-3,2l-7,5l-5,2l-5,3l-12,5l-8,2l-7,4l-7,2l-6,2l-5,2l-9,3l-9,2l-10,6l-4,1l-4,0l-4,1l-12,1l-6,0l-7,0l-7,0l-11,0l-5,0l-6,0l-7,2l-9,0l-11,0l-11,0l-9,-1l-9,-1l-6,-1l-7,-3l-5,-1l-5,-3l-4,-3l-2,-2l-2,-1l-3,-3l-5,-3l-3,-4l-3,-1l-3,-3l-6,-6l-4,-4l-4,-3l-4,-3l-3,-4l-6,-7l0,-3l-1,-3l-5,-10l-1,-1l-2,-9l-2,-2l-1,-4l-4,-6l-1,-3l-3,-4l-2,-7l0,-5l-2,-3l0,-1l-1,-5l-1,-4l-2,-4l-1,-3l-1,-5l0,-5l0,-3l0,-6l0,-4l-2,-2l-1,-6l0,-4l-1,-2l0,-2l0,-3l0,-2l0,-3l0,-3l0,-4l0,-1l0,-3l0,-1l0,-3l0,-4l0,-1l1,-3l0,-3l1,-2l2,-2l0,-3l2,-2l1,-1l4,-4l0,-1l1,-2l1,0l1,-1l1,-1l2,-3l2,0l1,-1l5,-3l3,-1l5,-2l1,0l4,-2l3,-1l5,-2l2,0l1,0l4,-1l4,-1l4,0l5,-2l5,0l5,-2l7,-1l6,0l7,-2l5,0l4,0l1,0l5,0l5,0l1,0l-6,7l2,5l4,1l4,0l3,1l7,0l4,2l5,1l9,0l5,1l6,1l5,2l4,0l3,0l3,0l2,1l2,0l2,0l2,1l1,0l1,0l2,1l1,0l3,1l1,0l5,1l2,2l3,1l1,0l3,2l2,1l2,1l3,1l1,1l1,0l2,1l2,1l1,0l0,1l2,0l2,2l1,0l1,1l1,1l0,1l2,0l2,1l1,1l0,1l1,1l2,1l3,2l0,1l1,1l1,5l-2,3l3,0l0,1l1,1l0,1l1,1l0,1l0,1l0,2l1,3l0,2l3,5l0,1l0,2l0,2l1,2l0,1l0,3l0,1l0,4l0,3l0,4l0,1l0,3l-2,3l0,2l0,2l-2,5l-2,2l0,2l-1,5l0,2l-2,2l0,2l-2,2l-2,4l-1,1l0,1l-1,1l0,1l-1,1l-1,1l-2,1l-1,1l-2,3l-1,1l-1,1l-3,4l-4,4l-1,1l-8,8l-1,2l-3,2l-4,4l-3,1l0,1l-1,1l-2,1l-1,1l-1,0l-5,2l-2,0l-3,2l-5,1l-5,1l-7,1l-9,2l-9,0l-9,2l-8,0l-2,0l-9,0l-2,0l-3,0l-1,0l-1,0l-1,-1l-2,0l-1,-1l-3,-1l-1,-1l-3,-1l-3,-2l-2,-1l-2,-1l-3,-3l-4,-3l-7,-3l-2,-3l-4,-3l-1,-1l-4,-2l-2,-1l-1,-1l-1,-3l-3,-4l-3,-2l-1,-2l-3,-4l-1,-2l-1,-2l-3,-4l0,-2l-1,-2l-2,-3l-1,-2l-1,-2l-3,-4l-1,-3l0,-3l0,-2l-2,-3l-1,-2l0,-2l0,-2l0,-5l0,-2l0,-3l0,-2l0,-2l0,-2l0,-1l0,-1l0,-1l2,-3l0,-1l1,-2l1,-1l1,-1l1,-1l0,-1l1,0l2,-1l1,0l0,-1l2,-1l2,-1l0,-1l4,-4l3,0l4,-1l3,-1l3,-2l1,0l1,0l1,-1l1,0l2,-1l1,0l1,-1l3,0l2,-1l1,0l2,0l2,-1l2,-1l3,-1l1,0l1,0l1,0l2,0l1,0l2,0l1,0l1,0l1,0l1,0l3,0l1,1l2,0l2,0l1,1l2,0l1,0l3,1l1,0l2,2l2,0l1,0l1,1l1,0l3,1l2,0l1,1l1,0l1,0l1,1l2,1l1,0l2,1l1,0l2,1l2,0l0,1l1,1l1,0l3,1l0,1l1,1l1,0l1,1l0,1l1,0l1,1l0,1l1,1l2,2l0,2l1,1l0,1l1,1l0,1l0,1l1,2l0,1l0,2l0,1l0,1l0,1l0,2l0,1l0,2l0,2l0,1l0,2l0,1l0,1l0,1l0,2l-1,1l0,2" stroke="black" id="e1_freepath" style="fill: none; stroke-width: 1px;"/></svg>